<?xml version="1.0" encoding="UTF-8"?>
<svg version="1.1" xmlns="http://www.w3.org/2000/svg" width="978" height="976">
<path d="M0 0 C9.26860906 2.77932115 18.42619638 5.81460096 27.5625 9 C30.02192372 9.85477602 32.481557 10.70894933 34.94140625 11.5625 C36.71668701 12.17931641 36.71668701 12.17931641 38.52783203 12.80859375 C42.73724262 14.25297033 46.96398898 15.64039505 51.19897461 17.0078125 C53.30228711 17.75285408 55.37362131 18.58917053 57.42431641 19.46875 C60.83096566 20.92761277 64.23928009 22.180082 67.74609375 23.375 C68.36090103 23.58560059 68.97570831 23.79620117 69.60914612 24.01318359 C71.5510748 24.67799328 73.49419279 25.33923195 75.4375 26 C90.91732555 31.27796077 90.91732555 31.27796077 98 34 C96.90723819 40.7943157 95.02359886 46.84195649 92.47265625 53.23046875 C90.7772622 57.50735529 89.26068943 61.84254334 87.75 66.1875 C87.316875 67.43249268 87.316875 67.43249268 86.875 68.70263672 C86.25420383 70.49075616 85.63428647 72.2791809 85.01513672 74.06787109 C83.90965975 77.26093948 82.80061122 80.45275608 81.69140625 83.64453125 C80.89825253 85.92962331 80.10528172 88.21477886 79.3125 90.5 C78.75997559 92.09171021 78.75997559 92.09171021 78.19628906 93.71557617 C76.39694882 98.91281388 74.63012067 104.11709544 72.91796875 109.34375 C71.86244928 112.53111709 70.78112564 115.65450688 69.42578125 118.7265625 C67.76271321 122.54478447 66.47015158 126.41656933 65.1875 130.375 C63.11800205 136.66588144 61.00825837 142.93947476 58.8125 149.1875 C58.57490967 149.86925293 58.33731934 150.55100586 58.0925293 151.25341797 C56.98481414 154.39097562 55.81028299 157.43875123 54.48828125 160.49609375 C52.90206892 164.23056214 51.6163262 168.0172654 50.375 171.875 C47.963908 179.23683677 45.39479068 186.53156713 42.75 193.8125 C39.40251299 203.0305163 36.17007544 212.28204271 33 221.5625 C29.5434098 231.6710167 25.9086809 241.692474 22.11328125 251.67822266 C19.68470281 258.09429354 17.43026556 264.54230804 15.30761719 271.06518555 C12.81349362 278.68488658 10.06364658 286.20942359 7.31860352 293.74169922 C5.3205014 299.24711273 3.40601738 304.76003325 1.64135742 310.34448242 C-1.3451282 319.75558956 -5.24853891 328.35260406 -10 337 C-10.33870117 337.6300293 -10.67740234 338.26005859 -11.02636719 338.90917969 C-18.83358086 353.30025447 -30.31942825 368.71175906 -44 378 C-44.66 378 -45.32 378 -46 378 C-46 378.66 -46 379.32 -46 380 C-51.44946575 385.18401899 -58.38372208 388.57521298 -65 392 C-65.77988281 392.42152344 -66.55976563 392.84304688 -67.36328125 393.27734375 C-88.19728972 404.23708266 -110.68672394 408.43019393 -134.0625 408.3125 C-134.83346008 408.31034485 -135.60442017 408.3081897 -136.39874268 408.30596924 C-160.30204082 408.19891276 -183.16778191 404.16072022 -205 394 C-206.18722656 393.46503906 -207.37445313 392.93007813 -208.59765625 392.37890625 C-216.92730317 388.59396243 -224.99983301 384.43854122 -233 380 C-233 379.34 -233 378.68 -233 378 C-233.56203125 377.89558594 -234.1240625 377.79117187 -234.703125 377.68359375 C-237.42380471 376.87386765 -239.39257807 375.63796662 -241.75 374.0625 C-242.54921875 373.53785156 -243.3484375 373.01320313 -244.171875 372.47265625 C-245.07679688 371.74369141 -245.07679688 371.74369141 -246 371 C-246 370.34 -246 369.68 -246 369 C-246.71800781 368.77441406 -247.43601562 368.54882812 -248.17578125 368.31640625 C-251.6116878 366.71488411 -253.58122903 364.67783029 -256.1875 361.9375 C-259.26744837 358.53095187 -259.26744837 358.53095187 -263 356 C-263 355.34 -263 354.68 -263 354 C-263.66 354 -264.32 354 -265 354 C-265 353.34 -265 352.68 -265 352 C-265.66 352 -266.32 352 -267 352 C-268.78017434 349.99768425 -270.42983315 347.99343048 -272.0625 345.875 C-272.54984619 345.24770996 -273.03719238 344.62041992 -273.53930664 343.97412109 C-296.48748046 314.00663771 -305.58782537 279.61258483 -301 242 C-299.25170535 231.39655883 -296.77855675 221.06945176 -293 211 C-284.77308048 212.36576806 -276.87182352 214.70744306 -268.91552734 217.14868164 C-266.76972325 217.80645406 -264.62143554 218.45553743 -262.47265625 219.10351562 C-254.61516478 221.48869959 -246.88118246 224.0812776 -239.16259766 226.88598633 C-234.76252426 228.43589639 -230.31094293 229.70943045 -225.8125 230.9375 C-224.02168721 231.44242346 -222.23133276 231.94897491 -220.44140625 232.45703125 C-219.54695801 232.71049316 -218.65250977 232.96395508 -217.73095703 233.22509766 C-216.82974121 233.48081543 -215.92852539 233.7365332 -215 234 C-213.62303955 234.38937744 -213.62303955 234.38937744 -212.21826172 234.78662109 C-209.55647842 235.54800724 -206.90283505 236.33307492 -204.25 237.125 C-203.43378174 237.35437256 -202.61756348 237.58374512 -201.77661133 237.82006836 C-199.515625 238.5078125 -199.515625 238.5078125 -196 240 C-194.89148182 242.98842211 -195.01011007 245.30858362 -195.4375 248.4375 C-196.87925023 261.2994297 -195.90525686 271.94221954 -190.90234375 283.8359375 C-190.19635681 285.52908366 -189.58010012 287.25969965 -189 289 C-188.34 289 -187.68 289 -187 289 C-184.875 290.875 -184.875 290.875 -183 293 C-183 293.66 -183 294.32 -183 295 C-181.948125 295.37125 -181.948125 295.37125 -180.875 295.75 C-178 297 -178 297 -175.375 298.87890625 C-171.41496767 301.36767657 -167.55421427 302.76408807 -163.125 304.1875 C-162.36058594 304.44724609 -161.59617187 304.70699219 -160.80859375 304.97460938 C-147.09919514 309.47846104 -134.84361805 308.99155287 -121.8828125 302.8046875 C-120 302 -120 302 -118 302 C-118 301.34 -118 300.68 -118 300 C-116.28515625 298.34375 -116.28515625 298.34375 -114.0625 296.5 C-111.07954821 294.11073001 -111.07954821 294.11073001 -109 291 C-108.34 291 -107.68 291 -107 291 C-106.72671875 290.26652344 -106.4534375 289.53304688 -106.171875 288.77734375 C-105.06269085 286.1485773 -103.79252484 283.95507213 -102.25 281.5625 C-95.2741448 270.05993973 -91.19998852 257.19746098 -86.86914062 244.53515625 C-85.53451912 240.64226026 -84.17371927 236.75865857 -82.8125 232.875 C-82.53672119 232.08585205 -82.26094238 231.2967041 -81.97680664 230.48364258 C-80.04350152 224.95697471 -78.09330934 219.43642269 -76.13671875 213.91796875 C-75.09081001 210.96626472 -74.04533645 208.01440675 -73 205.0625 C-72.7383606 204.3240686 -72.47672119 203.58563721 -72.20715332 202.8248291 C-68.7942247 193.18543321 -65.42757051 183.53601984 -62.31835938 173.79321289 C-60.94335161 169.55220824 -59.37485203 165.46346835 -57.62109375 161.36328125 C-54.6729181 154.39637263 -52.32962472 147.25248628 -50 140.0625 C-47.2532275 131.60866385 -44.38717923 123.23558934 -41.14746094 114.95483398 C-39.54737658 110.83444654 -38.0734834 106.67563714 -36.625 102.5 C-36.33463867 101.66831299 -36.04427734 100.83662598 -35.74511719 99.97973633 C-33.21614775 92.70181863 -30.78136537 85.39292032 -28.39697266 78.06640625 C-26.81705137 73.25786823 -25.01108318 68.64927832 -23 64 C-22.14076237 61.52969182 -21.30764607 59.05015344 -20.5 56.5625 C-19.05527971 52.1218373 -17.5452544 47.73995196 -15.88818359 43.37280273 C-13.88492917 38.02106283 -11.98477259 32.63122075 -10.0625 27.25 C-9.63259766 26.05117188 -9.20269531 24.85234375 -8.75976562 23.6171875 C-6.34061515 16.84797129 -4.00109222 10.06343301 -1.79467773 3.22167969 C-1 1 -1 1 0 0 Z M19 30 C16.32545951 37.0510613 13.78297148 44.14701166 11.25 51.25 C11.02901642 51.86904205 10.80803284 52.48808411 10.58035278 53.12588501 C7.55678173 61.59648555 4.56431939 70.07735251 1.60766602 78.5715332 C-0.65124129 85.04436037 -2.97826098 91.49151382 -5.3125 97.9375 C-8.63541544 107.1148051 -11.84363894 116.32667856 -15 125.5625 C-18.44367008 135.63862126 -22.07631896 145.6206761 -25.87353516 155.56835938 C-28.53055994 162.58853622 -30.90567477 169.6623108 -33.06152344 176.85205078 C-34.20908371 180.65453057 -35.51077117 184.24345565 -37.125 187.88012695 C-39.27613501 193.09170767 -40.99084893 198.47876275 -42.8125 203.8125 C-43.25967378 205.11480559 -43.70702196 206.4170513 -44.15454102 207.71923828 C-46.8630764 215.61265259 -49.54263855 223.51584372 -52.1105957 231.45629883 C-53.51607116 235.75155709 -55.21797095 239.8496869 -57 244 C-57.86007175 246.44910674 -58.69313427 248.90785288 -59.5 251.375 C-59.82689819 252.3659668 -59.82689819 252.3659668 -60.16040039 253.37695312 C-61.04554747 256.06237143 -61.9207344 258.75065193 -62.77734375 261.4453125 C-67.35610972 275.69638292 -73.24610147 288.95408746 -81.8984375 301.22265625 C-83.17560157 302.93482441 -83.17560157 302.93482441 -83 305 C-83.66 305 -84.32 305 -85 305 C-86.56648858 306.58737399 -86.56648858 306.58737399 -88.1875 308.625 C-97.85107765 319.91905783 -108.60591117 325.46492781 -123 329 C-123.63494385 329.1757959 -124.2698877 329.3515918 -124.92407227 329.53271484 C-146.6312465 334.41893518 -173.64322853 326.38173901 -192 315 C-192.92683594 314.42636719 -193.85367188 313.85273437 -194.80859375 313.26171875 C-207.48947397 304.76676015 -215.77751164 291.82474062 -219 277 C-220.2476767 269.70290328 -221.14081746 262.35155383 -222 255 C-235.8836394 250.2339428 -249.8288193 245.83405636 -264 242 C-264.7739209 241.78682129 -265.5478418 241.57364258 -266.34521484 241.35400391 C-268.21831908 240.85586888 -270.10809551 240.4211358 -272 240 C-276.60645475 244.60645475 -275.2673159 258.62387237 -275.3125 264.8125 C-275.28456945 274.21791191 -274.29423386 282.87272332 -272 292 C-271.73316406 293.09183594 -271.46632813 294.18367188 -271.19140625 295.30859375 C-267.36410992 309.20593197 -260.18387933 322.87264413 -251 334 C-250.34 334 -249.68 334 -249 334 C-248.773125 334.53625 -248.54625 335.0725 -248.3125 335.625 C-244.90607729 341.789003 -239.61121914 346.81326254 -234 351 C-233.34 351 -232.68 351 -232 351 C-232 351.66 -232 352.32 -232 353 C-229.57735788 355.10841866 -226.8442911 356.82486983 -224.1875 358.625 C-223.44951172 359.140625 -222.71152344 359.65625 -221.95117188 360.1875 C-221.23896484 360.67476562 -220.52675781 361.16203125 -219.79296875 361.6640625 C-219.1383667 362.11217285 -218.48376465 362.5602832 -217.80932617 363.02197266 C-215.90293887 364.237761 -215.90293887 364.237761 -213 364 C-213 364.66 -213 365.32 -213 366 C-177.70427307 383.43477181 -139.69770629 393.30222687 -101.02783203 380.33886719 C-89.77395176 376.31332034 -78.6815625 371.0489831 -69 364 C-69 363.34 -69 362.68 -69 362 C-68.29875 361.773125 -67.5975 361.54625 -66.875 361.3125 C-63.25871465 359.66158712 -60.91230024 357.7091165 -58 355 C-58 354.34 -58 353.68 -58 353 C-57.34 353 -56.68 353 -56 353 C-56 352.34 -56 351.68 -56 351 C-55.34 351 -54.68 351 -54 351 C-52.20299337 348.95492175 -50.52937301 346.90650347 -48.875 344.75 C-48.38435059 344.11537842 -47.89370117 343.48075684 -47.38818359 342.8269043 C-37.8481021 330.36756408 -31.49241654 318.01500178 -25.875 303.4375 C-25.53791016 302.56295166 -25.20082031 301.68840332 -24.85351562 300.78735352 C-22.89859474 295.62665272 -21.17354883 290.45161942 -19.66040039 285.14404297 C-18.90304658 282.68523291 -17.87843232 280.38387439 -16.81640625 278.04296875 C-15.28728879 274.21651692 -14.21393963 270.23452606 -13.0625 266.28125 C-11.91691537 262.74341511 -10.46806416 259.41549622 -9 256 C-8.14158439 253.50850104 -7.30841769 251.00816771 -6.5 248.5 C-5.29482916 244.76088022 -4.057678 241.13438067 -2.5078125 237.5234375 C-0.90753888 233.783938 0.38068088 229.99203585 1.625 226.125 C4.036092 218.76316323 6.60520932 211.46843287 9.25 204.1875 C12.59748701 194.9694837 15.82992456 185.71795729 19 176.4375 C22.45734444 166.32677761 26.09359086 156.30343999 29.88891602 146.31518555 C32.29225455 139.9644582 34.52582333 133.58376261 36.62866211 127.12817383 C39.29486472 118.99089826 42.2150403 110.94590224 45.11035156 102.88793945 C48.41134187 93.6865835 51.61997533 84.45609163 54.79589844 75.2109375 C57.40854624 67.63355465 60.12860073 60.10205835 62.96948242 52.60717773 C64.46730996 48.9068687 64.46730996 48.9068687 65 45 C63.73893433 44.58488159 63.73893433 44.58488159 62.45239258 44.16137695 C59.26631843 43.11086668 56.0812333 42.05745106 52.89672852 41.00219727 C51.53088991 40.5502242 50.16469111 40.09933782 48.7980957 39.6496582 C40.62293123 36.95867909 32.56304602 34.13474773 24.58081055 30.90698242 C21.98420598 29.83422265 21.98420598 29.83422265 19 30 Z " fill="#198695" transform="translate(543,382)"/>
<path d="M0 0 C0.91224335 0.00021149 1.82448669 0.00042297 2.76437378 0.00064087 C16.23170224 0.03185325 29.04864618 0.61632145 42.0625 4.375 C43.1153418 4.66383057 43.1153418 4.66383057 44.18945312 4.95849609 C48.87825886 6.25889009 53.47352191 7.76051089 58.0625 9.375 C58.71524902 9.59913574 59.36799805 9.82327148 60.04052734 10.05419922 C79.63123455 16.82328776 100.28611378 26.69775872 116.0625 40.375 C116.0625 41.035 116.0625 41.695 116.0625 42.375 C116.62710937 42.62378906 117.19171875 42.87257812 117.7734375 43.12890625 C128.17796291 48.79280319 137.95178188 60.39974097 144.0625 70.375 C144.0625 71.035 144.0625 71.695 144.0625 72.375 C144.7225 72.375 145.3825 72.375 146.0625 72.375 C160.27377501 91.07404607 167.43263445 117.24175614 168.0625 140.375 C168.09085938 141.2928125 168.11921875 142.210625 168.1484375 143.15625 C168.18881233 145.90173863 168.14442693 148.63044798 168.0625 151.375 C168.03414062 152.47972656 168.00578125 153.58445312 167.9765625 154.72265625 C167.31934153 169.35364683 164.20619842 183.66759092 159.0625 197.375 C154.30313822 196.69297308 149.78099581 195.51119662 145.1875 194.125 C144.06287354 193.78903809 144.06287354 193.78903809 142.91552734 193.44628906 C140.62966847 192.76077176 138.34583407 192.06887537 136.0625 191.375 C134.8353125 191.00375 133.608125 190.6325 132.34375 190.25 C123.72320461 187.5975245 115.17495327 184.74633189 106.625 181.875 C97.71324155 178.88377342 88.79097929 176.02019267 79.75390625 173.43359375 C76.03187895 172.36621873 72.32777928 171.25718822 68.625 170.125 C67.59503906 169.81046875 66.56507813 169.4959375 65.50390625 169.171875 C63.0625 168.375 63.0625 168.375 61.0625 167.375 C61.1346875 166.58738281 61.206875 165.79976562 61.28125 164.98828125 C63.42827415 140.19802936 63.42827415 140.19802936 53.0625 118.375 C44.17027041 108.43100132 31.63489125 104.53429935 19.0625 101.375 C18.0725 101.08496094 18.0725 101.08496094 17.0625 100.7890625 C6.85980677 98.67678617 -3.93399492 100.3418531 -12.9453125 105.53125 C-14.29867239 106.44656587 -15.62217916 107.40581622 -16.9375 108.375 C-17.5975 108.375 -18.2575 108.375 -18.9375 108.375 C-18.9375 109.035 -18.9375 109.695 -18.9375 110.375 C-19.5975 110.375 -20.2575 110.375 -20.9375 110.375 C-20.9375 111.035 -20.9375 111.695 -20.9375 112.375 C-21.5975 112.375 -22.2575 112.375 -22.9375 112.375 C-22.9375 113.035 -22.9375 113.695 -22.9375 114.375 C-23.5975 114.375 -24.2575 114.375 -24.9375 114.375 C-25.20175781 115.11234375 -25.46601563 115.8496875 -25.73828125 116.609375 C-26.93192203 119.36213616 -28.27872193 121.27595971 -30.125 123.625 C-38.27866728 135.08740183 -42.07600443 149.35524299 -46.359375 162.59765625 C-47.51085653 166.13405061 -48.75398932 169.61606588 -50.08007812 173.09008789 C-52.51532586 179.57969027 -54.77631786 186.13615687 -57.08984375 192.66992188 C-59.18473684 198.56060748 -61.32416588 204.42504101 -63.5859375 210.25390625 C-65.42891947 215.0069546 -67.13028565 219.77216034 -68.6875 224.625 C-71.05615307 231.86194101 -73.5886848 239.03020879 -76.1875 246.1875 C-79.54894551 255.44915007 -82.80659249 264.74160007 -86 274.0625 C-89.27324267 283.61097873 -92.62713015 293.12257113 -96.10083008 302.59985352 C-100.61157413 314.91557605 -105.00969484 327.27934335 -109.015625 339.76953125 C-109.9375 342.375 -109.9375 342.375 -111.3203125 345.515625 C-113.41555762 350.3280599 -114.94704946 355.32352521 -116.5625 360.3125 C-119.7596944 370.06111189 -123.21660143 379.68437141 -126.87939453 389.26733398 C-129.04082386 394.92847683 -131.07897749 400.60689487 -132.9375 406.375 C-136.72262202 407.3717937 -139.09992628 407.3348483 -142.8125 406.125 C-143.61429687 405.87234375 -144.41609375 405.6196875 -145.2421875 405.359375 C-147.87367232 404.39831098 -150.42303544 403.29951685 -152.99121094 402.18261719 C-156.64318107 400.66722366 -160.38782734 399.41205621 -164.125 398.125 C-165.91667463 397.50262708 -167.70834107 396.88023061 -169.5 396.2578125 C-170.4075 395.94360352 -171.315 395.62939453 -172.25 395.30566406 C-176.37710878 393.87647269 -180.50169622 392.44012909 -184.625 391 C-185.43026123 390.71890381 -186.23552246 390.43780762 -187.06518555 390.14819336 C-195.06736955 387.34583273 -203.04169646 384.46658997 -211.01049805 381.57080078 C-217.94985505 379.05801116 -224.92555562 376.67734831 -231.9375 374.375 C-230.42963934 366.67999371 -228.0350804 359.45343573 -225.4375 352.0625 C-224.99205006 350.78452842 -224.54690619 349.50645013 -224.10205078 348.22827148 C-218.48965036 332.13480536 -212.7645699 316.0799233 -206.90332031 300.07543945 C-203.07219089 289.61149774 -199.40978195 279.09597516 -195.7956543 268.55517578 C-192.43338232 258.76618496 -188.97572346 249.01373759 -185.47924805 239.27197266 C-183.07409087 232.56867096 -180.70516217 225.85468812 -178.375 219.125 C-175.91704293 212.0332959 -173.29618042 205.01386873 -170.625 198 C-165.28371496 183.93815537 -160.62712472 169.66430909 -155.9375 155.375 C-155.20643958 153.14907761 -154.47348632 150.92377563 -153.73828125 148.69921875 C-153.42673096 147.75393311 -153.11518066 146.80864746 -152.79418945 145.8347168 C-152.09792279 143.83560406 -151.28413991 141.87771645 -150.4375 139.9375 C-148.6103433 135.59800284 -147.31576347 131.17370459 -146 126.65625 C-144.85448271 123.11862306 -143.40591893 119.79001531 -141.9375 116.375 C-141.12143966 113.9873654 -140.33021432 111.59111565 -139.5625 109.1875 C-137.68030166 103.39810762 -135.52847861 97.80092709 -133.1171875 92.20703125 C-131.96358084 89.43761128 -130.97133357 86.65023899 -130 83.8125 C-126.88008454 75.14606818 -122.07404868 67.4496437 -117.1875 59.6875 C-116.79860596 59.06254639 -116.40971191 58.43759277 -116.0090332 57.79370117 C-115.04027693 56.28399782 -113.99507193 54.82387354 -112.9375 53.375 C-112.2775 53.375 -111.6175 53.375 -110.9375 53.375 C-110.6789624 52.63185547 -110.4204248 51.88871094 -110.15405273 51.12304688 C-108.11322945 46.51307159 -104.53483639 43.39907755 -101 39.875 C-100.20529297 39.08198486 -99.41058594 38.28896973 -98.59179688 37.47192383 C-81.97147551 21.33804295 -62.41081372 11.33310387 -40.375 4.6875 C-39.71556396 4.48511719 -39.05612793 4.28273437 -38.37670898 4.07421875 C-25.66017977 0.3591037 -13.14552262 -0.02799914 0 0 Z M-27.9375 26.375 C-28.6382666 26.56755371 -29.3390332 26.76010742 -30.06103516 26.95849609 C-38.6044312 29.39162602 -46.34650232 32.75685941 -53.9375 37.375 C-55.30841797 38.17744141 -55.30841797 38.17744141 -56.70703125 38.99609375 C-62.58017392 42.55283609 -67.63169078 46.54828566 -72.64453125 51.234375 C-74.67127167 53.12645975 -76.7424909 54.91711509 -78.875 56.6875 C-81.25954442 58.71773711 -83.29566963 60.67080881 -84.9375 63.375 C-84.9375 64.035 -84.9375 64.695 -84.9375 65.375 C-85.5975 65.375 -86.2575 65.375 -86.9375 65.375 C-88.53098861 67.32114527 -88.53098861 67.32114527 -90.0625 69.75 C-90.60132813 70.56210938 -91.14015625 71.37421875 -91.6953125 72.2109375 C-93.1034413 74.24822026 -93.1034413 74.24822026 -92.9375 76.375 C-93.5975 76.375 -94.2575 76.375 -94.9375 76.375 C-104.10702129 94.07098524 -110.96299308 112.05857762 -117.3828125 130.92578125 C-119.73840314 137.83426177 -122.19393418 144.70280754 -124.6875 151.5625 C-127.45879272 159.19338015 -130.11596144 166.84442604 -132.62988281 174.56347656 C-135.05898353 181.92388434 -137.84910032 189.14303368 -140.60791016 196.38476562 C-143.32983991 203.59238937 -145.78577157 210.84459928 -147.99804688 218.22436523 C-149.36780683 222.76195217 -151.04519124 227.02075892 -152.9375 231.375 C-154.02997304 234.2950315 -155.04662883 237.24006807 -156.0625 240.1875 C-156.35745361 241.03699219 -156.65240723 241.88648438 -156.95629883 242.76171875 C-157.6020499 244.62281501 -158.24661089 246.48432453 -158.89013672 248.34619141 C-160.00823466 251.57955341 -161.13081149 254.81133916 -162.25390625 258.04296875 C-163.04444331 260.32025264 -163.83480996 262.59759568 -164.625 264.875 C-164.99318848 265.93565674 -165.36137695 266.99631348 -165.74072266 268.08911133 C-167.54020324 273.28684491 -169.30721912 278.49160637 -171.01953125 283.71875 C-172.45446748 288.04953993 -174.13940524 292.1809668 -175.9375 296.375 C-177.53365571 300.83556289 -179.04341907 305.32520134 -180.5625 309.8125 C-184.17670285 320.42872534 -187.94886092 330.96681139 -191.98095703 341.43334961 C-193.6736311 345.85697122 -195.29897296 350.29271122 -196.75390625 354.80078125 C-197.0072876 355.58493408 -197.26066895 356.36908691 -197.52172852 357.17700195 C-198.00339602 359.72336281 -198.06112538 361.0269548 -196.9375 363.375 C-194.7487742 364.67023399 -194.7487742 364.67023399 -191.96875 365.5234375 C-190.92984619 365.88638916 -189.89094238 366.24934082 -188.82055664 366.62329102 C-187.1459436 367.18101196 -187.1459436 367.18101196 -185.4375 367.75 C-184.31013428 368.13921631 -183.18276855 368.52843262 -182.02124023 368.92944336 C-179.7400729 369.71645015 -177.45678356 370.49733379 -175.17138672 371.27197266 C-172.2931287 372.2537007 -169.4274553 373.26237875 -166.56640625 374.29296875 C-165.78523438 374.57414551 -165.0040625 374.85532227 -164.19921875 375.14501953 C-162.76290121 375.66259133 -161.32669814 376.18048093 -159.890625 376.69873047 C-156.497628 377.95657078 -156.497628 377.95657078 -152.9375 378.375 C-150.12606004 371.33396009 -147.53349267 364.26920218 -145.1875 357.0625 C-142.80989635 349.77133972 -140.16967457 342.60277845 -137.4375 335.4375 C-134.30265265 327.209671 -131.40551556 318.96047961 -128.87695312 310.52563477 C-127.50719317 305.98804783 -125.82980876 301.72924108 -123.9375 297.375 C-122.84502696 294.4549685 -121.82837117 291.50993193 -120.8125 288.5625 C-120.51754639 287.71300781 -120.22259277 286.86351562 -119.91870117 285.98828125 C-119.2729501 284.12718499 -118.62838911 282.26567547 -117.98486328 280.40380859 C-116.86676534 277.17044659 -115.74418851 273.93866084 -114.62109375 270.70703125 C-113.83055669 268.42974736 -113.04019004 266.15240432 -112.25 263.875 C-111.88181152 262.81434326 -111.51362305 261.75368652 -111.13427734 260.66088867 C-109.33479676 255.46315509 -107.56778088 250.25839363 -105.85546875 245.03125 C-104.42040289 240.70042625 -102.73618657 236.56889957 -100.9375 232.375 C-99.31945027 227.87316198 -97.78815652 223.34215449 -96.25 218.8125 C-93.20832838 209.906433 -90.12292436 201.02096374 -86.875 192.1875 C-83.96965093 184.28081575 -81.17698927 176.34065476 -78.4375 168.375 C-75.56110776 160.01896905 -72.64142723 151.68160075 -69.625 143.375 C-69.31175781 142.51003906 -68.99851562 141.64507812 -68.67578125 140.75390625 C-62.80288835 124.66619536 -62.80288835 124.66619536 -59.6875 119.4375 C-57.68943053 116.52875139 -57.68943053 116.52875139 -57.9375 113.375 C-57.2775 113.375 -56.6175 113.375 -55.9375 113.375 C-55.380625 112.34375 -54.82375 111.3125 -54.25 110.25 C-52.76268585 107.62187859 -51.16462294 105.3437957 -49.1875 103.0625 C-46.72352111 100.7035839 -46.72352111 100.7035839 -46.9375 98.375 C-46.2775 98.375 -45.6175 98.375 -44.9375 98.375 C-44.9375 97.715 -44.9375 97.055 -44.9375 96.375 C-44.2775 96.375 -43.6175 96.375 -42.9375 96.375 C-42.9375 95.715 -42.9375 95.055 -42.9375 94.375 C-40.9375 93.375 -38.9375 92.375 -36.9375 91.375 C-36.9375 90.715 -36.9375 90.055 -36.9375 89.375 C-36.25171875 89.1171875 -35.5659375 88.859375 -34.859375 88.59375 C-30.32522165 86.70249887 -26.04315703 84.32776919 -21.703125 82.03125 C-3.85149037 73.60289066 20.09111117 77.38469545 38.04296875 83.765625 C44.89228132 86.31828004 51.37202077 89.41416156 57.6953125 93.078125 C60.0943269 94.39243652 62.5052949 95.41036035 65.0625 96.375 C65.0625 97.035 65.0625 97.695 65.0625 98.375 C65.7225 98.375 66.3825 98.375 67.0625 98.375 C67.0625 99.035 67.0625 99.695 67.0625 100.375 C68.89583333 102.54166667 68.89583333 102.54166667 71.0625 104.375 C71.7225 104.375 72.3825 104.375 73.0625 104.375 C73.0625 105.035 73.0625 105.695 73.0625 106.375 C73.7225 106.375 74.3825 106.375 75.0625 106.375 C75.4646875 107.41333984 75.4646875 107.41333984 75.875 108.47265625 C77.63086146 112.76412028 79.64534579 116.92917595 81.625 121.12109375 C84.71296768 128.1109771 85.77736378 134.70887131 86.6875 142.25 C86.8215625 143.31992187 86.955625 144.38984375 87.09375 145.4921875 C87.4221222 148.11916509 87.74486412 150.74670634 88.0625 153.375 C89.74085938 153.86806641 89.74085938 153.86806641 91.453125 154.37109375 C99.51407955 156.7570542 107.55476722 159.19303215 115.5546875 161.77734375 C116.18737549 161.98171555 116.82006348 162.18608734 117.47192383 162.39665222 C120.63047993 163.41860468 123.78713477 164.44614841 126.94238281 165.47827148 C128.09834961 165.85411377 129.25431641 166.22995605 130.4453125 166.6171875 C131.48059082 166.9560498 132.51586914 167.29491211 133.58251953 167.64404297 C135.95132438 168.46923947 135.95132438 168.46923947 138.0625 168.375 C143.5287874 154.16265275 142.4451249 134.94794376 139.0625 120.375 C138.86785156 119.41980469 138.67320312 118.46460938 138.47265625 117.48046875 C135.10548006 102.27836559 127.61071925 89.19732888 119.0625 76.375 C118.4025 76.375 117.7425 76.375 117.0625 76.375 C116.77375 75.776875 116.485 75.17875 116.1875 74.5625 C115.01507974 72.18172208 115.01507974 72.18172208 113.0625 69.375 C112.4025 69.375 111.7425 69.375 111.0625 69.375 C110.82789063 68.80523437 110.59328125 68.23546875 110.3515625 67.6484375 C106.43416729 60.73957686 97.77521386 54.57044616 91.0625 50.375 C90.4025 50.375 89.7425 50.375 89.0625 50.375 C89.0625 49.715 89.0625 49.055 89.0625 48.375 C87.0825 47.715 85.1025 47.055 83.0625 46.375 C83.0625 45.715 83.0625 45.055 83.0625 44.375 C81.93714844 43.81232422 81.93714844 43.81232422 80.7890625 43.23828125 C79.76554687 42.72652344 78.74203125 42.21476562 77.6875 41.6875 C76.5840625 41.13835937 75.480625 40.58921875 74.34375 40.0234375 C72.39757895 39.04571824 70.45740603 38.05564485 68.53125 37.0390625 C39.2897258 21.73599817 3.86921104 17.61663029 -27.9375 26.375 Z " fill="#F05158" transform="translate(514.9375,128.625)"/>
<path d="M0 0 C0.76811508 -0.00196884 1.53623016 -0.00393768 2.32762146 -0.00596619 C10.02584363 -0.0214008 17.72377509 0.00793713 25.421875 0.05078125 C25.421875 0.71078125 25.421875 1.37078125 25.421875 2.05078125 C24.86765869 2.06012695 24.31344238 2.06947266 23.74243164 2.07910156 C-0.48798644 2.57976046 -24.42669425 5.45269829 -48.203125 10.05078125 C-49.42781494 10.28756592 -50.65250488 10.52435059 -51.91430664 10.76831055 C-60.57939313 12.51197074 -69.05886897 14.71274348 -77.578125 17.05078125 C-79.12040359 17.45446893 -80.66324675 17.8560163 -82.20703125 18.25390625 C-94.28142608 21.43405533 -105.90577586 25.6393703 -117.578125 30.05078125 C-119.21350716 30.65894696 -120.84892237 31.26702381 -122.484375 31.875 C-130.57336663 34.91568732 -138.31806992 38.2490065 -145.99609375 42.2265625 C-150.08757037 44.34108941 -154.27160153 46.24748578 -158.453125 48.17578125 C-162.94903526 50.25484662 -167.29183712 52.34288436 -171.453125 55.05078125 C-174.578125 57.05078125 -174.578125 57.05078125 -177.578125 57.05078125 C-177.578125 57.71078125 -177.578125 58.37078125 -177.578125 59.05078125 C-178.20976562 59.37949219 -178.84140625 59.70820312 -179.4921875 60.046875 C-185.78559335 63.3930807 -191.79342177 67.02438371 -197.71728516 70.97827148 C-200.90734114 73.08279043 -203.96978961 74.78043096 -207.578125 76.05078125 C-207.578125 76.71078125 -207.578125 77.37078125 -207.578125 78.05078125 C-209.40625 79.453125 -209.40625 79.453125 -211.828125 80.98828125 C-214.20936081 82.50962635 -216.51970056 84.00528164 -218.75 85.7421875 C-220.578125 87.05078125 -220.578125 87.05078125 -222.578125 87.05078125 C-222.578125 87.71078125 -222.578125 88.37078125 -222.578125 89.05078125 C-224.01171875 90.3125 -224.01171875 90.3125 -226.015625 91.73828125 C-230.00795152 94.62044211 -233.85976274 97.64331894 -237.6953125 100.73046875 C-239.578125 102.05078125 -239.578125 102.05078125 -241.578125 102.05078125 C-241.578125 102.71078125 -241.578125 103.37078125 -241.578125 104.05078125 C-242.238125 104.05078125 -242.898125 104.05078125 -243.578125 104.05078125 C-243.578125 104.71078125 -243.578125 105.37078125 -243.578125 106.05078125 C-245.11786804 107.41022121 -246.71962722 108.69960896 -248.34375 109.95703125 C-254.21531544 114.6587973 -259.55757793 119.72382139 -264.85009766 125.06201172 C-266.33406502 126.55676444 -267.82852345 128.04042999 -269.32421875 129.5234375 C-274.37800986 134.57263235 -279.07567487 139.67351803 -283.24707031 145.48632812 C-283.68631836 146.00259766 -284.12556641 146.51886719 -284.578125 147.05078125 C-285.238125 147.05078125 -285.898125 147.05078125 -286.578125 147.05078125 C-286.578125 147.71078125 -286.578125 148.37078125 -286.578125 149.05078125 C-287.238125 149.05078125 -287.898125 149.05078125 -288.578125 149.05078125 C-288.9184375 149.82421875 -288.9184375 149.82421875 -289.265625 150.61328125 C-291.06030118 153.9462513 -293.07777515 157.19781796 -295.578125 160.05078125 C-296.238125 160.05078125 -296.898125 160.05078125 -297.578125 160.05078125 C-297.83335937 160.6128125 -298.08859375 161.17484375 -298.3515625 161.75390625 C-299.73880493 164.35167233 -301.38362018 166.48249326 -303.203125 168.80078125 C-318.6688527 189.05700914 -331.74385694 211.11602205 -343.765625 233.55078125 C-344.11616943 234.20232178 -344.46671387 234.8538623 -344.82788086 235.52514648 C-346.82957353 239.34067071 -348.39919669 243.17673756 -349.85571289 247.22924805 C-350.82538263 249.67423147 -352.21671587 251.80445619 -353.578125 254.05078125 C-354.54592184 256.43968207 -355.45862913 258.8147673 -356.328125 261.23828125 C-357.91522686 265.59392178 -359.51077716 269.93603039 -361.27734375 274.22265625 C-366.46456543 286.87795364 -370.10902859 299.83316131 -373.578125 313.05078125 C-373.85043945 314.07574707 -374.12275391 315.10071289 -374.40332031 316.15673828 C-380.4229858 338.92155546 -384.14223746 361.40565577 -386.27954102 384.85961914 C-386.45969843 386.78507915 -386.65385376 388.70940332 -386.87475586 390.63061523 C-387.93710508 400.29789837 -387.77684753 410.0254953 -387.765625 419.73828125 C-387.76502075 420.69886444 -387.7644165 421.65944763 -387.76379395 422.6491394 C-387.73892547 437.20159599 -387.43827607 451.59942878 -385.578125 466.05078125 C-385.3927417 467.53578125 -385.3927417 467.53578125 -385.20361328 469.05078125 C-382.99391448 486.19268711 -379.35355073 502.96478333 -375.359375 519.76171875 C-374.72104538 522.44908644 -374.09775554 525.13890731 -373.484375 527.83203125 C-372.1585049 533.45554925 -370.64833978 538.93176258 -368.74609375 544.38671875 C-368.25786133 545.7931665 -368.25786133 545.7931665 -367.75976562 547.22802734 C-367.11547927 549.05740819 -366.45496928 550.8811879 -365.77539062 552.69775391 C-363.23657602 559.8302876 -363.42107097 564.45782401 -365.765625 571.73828125 C-368.3146833 576.39690504 -371.21787864 578.67397087 -375.828125 581.36328125 C-383.78770095 583.35317524 -389.6065662 582.18207535 -396.578125 578.05078125 C-396.578125 577.39078125 -396.578125 576.73078125 -396.578125 576.05078125 C-397.238125 576.05078125 -397.898125 576.05078125 -398.578125 576.05078125 C-402.16900127 569.54329805 -404.15087155 563.11853965 -405.953125 555.92578125 C-406.25130127 554.74781982 -406.54947754 553.5698584 -406.85668945 552.35620117 C-424.37201502 481.8164904 -425.36642715 409.00678588 -409.578125 338.05078125 C-409.38138184 337.14682617 -409.18463867 336.24287109 -408.98193359 335.31152344 C-406.4847042 323.98393081 -403.06218382 312.96079643 -399.515625 301.92578125 C-399.30184204 301.25974884 -399.08805908 300.59371643 -398.86779785 299.90750122 C-396.60716651 292.89609651 -394.24562284 285.95750269 -391.43823242 279.14306641 C-390.30619185 276.38928051 -389.29293158 273.59505516 -388.265625 270.80078125 C-386.04879005 265.02357502 -383.42383248 259.56531024 -380.6015625 254.0625 C-378.12891597 249.21556499 -375.83427584 244.28516235 -373.515625 239.36328125 C-370.09385701 232.12117422 -366.57862317 224.99473539 -362.578125 218.05078125 C-361.918125 218.05078125 -361.258125 218.05078125 -360.578125 218.05078125 C-360.47628906 217.509375 -360.37445313 216.96796875 -360.26953125 216.41015625 C-359.40054893 213.44481544 -358.02340209 210.99553179 -356.515625 208.30078125 C-355.96777344 207.3159375 -355.41992188 206.33109375 -354.85546875 205.31640625 C-354.43394531 204.56875 -354.01242187 203.82109375 -353.578125 203.05078125 C-352.918125 203.05078125 -352.258125 203.05078125 -351.578125 203.05078125 C-351.43697266 202.23867188 -351.43697266 202.23867188 -351.29296875 201.41015625 C-350.36673247 198.35307037 -348.8535894 195.9930912 -347.140625 193.30078125 C-346.52316406 192.3159375 -345.90570313 191.33109375 -345.26953125 190.31640625 C-344.71136719 189.56875 -344.15320313 188.82109375 -343.578125 188.05078125 C-342.918125 188.05078125 -342.258125 188.05078125 -341.578125 188.05078125 C-341.31 187.32890625 -341.041875 186.60703125 -340.765625 185.86328125 C-339.57911138 183.05311742 -338.30326861 180.56661568 -336.578125 178.05078125 C-335.918125 178.05078125 -335.258125 178.05078125 -334.578125 178.05078125 C-334.33835937 177.33792969 -334.09859375 176.62507812 -333.8515625 175.890625 C-332.38413406 172.61816955 -330.52963154 170.33784456 -328.203125 167.61328125 C-325.6759022 164.61144357 -323.224323 161.6908598 -321.140625 158.36328125 C-320.625 157.60015625 -320.109375 156.83703125 -319.578125 156.05078125 C-318.918125 156.05078125 -318.258125 156.05078125 -317.578125 156.05078125 C-317.578125 155.39078125 -317.578125 154.73078125 -317.578125 154.05078125 C-316.918125 154.05078125 -316.258125 154.05078125 -315.578125 154.05078125 C-315.3203125 153.48875 -315.0625 152.92671875 -314.796875 152.34765625 C-313.43642723 149.78373546 -311.85023538 147.5985176 -310.078125 145.30078125 C-309.4696875 144.5015625 -308.86125 143.70234375 -308.234375 142.87890625 C-307.6878125 142.275625 -307.14125 141.67234375 -306.578125 141.05078125 C-305.918125 141.05078125 -305.258125 141.05078125 -304.578125 141.05078125 C-304.578125 140.39078125 -304.578125 139.73078125 -304.578125 139.05078125 C-303.918125 139.05078125 -303.258125 139.05078125 -302.578125 139.05078125 C-302.578125 138.39078125 -302.578125 137.73078125 -302.578125 137.05078125 C-301.918125 137.05078125 -301.258125 137.05078125 -300.578125 137.05078125 C-300.578125 136.39078125 -300.578125 135.73078125 -300.578125 135.05078125 C-299.918125 135.05078125 -299.258125 135.05078125 -298.578125 135.05078125 C-298.578125 134.39078125 -298.578125 133.73078125 -298.578125 133.05078125 C-297.918125 133.05078125 -297.258125 133.05078125 -296.578125 133.05078125 C-296.578125 132.39078125 -296.578125 131.73078125 -296.578125 131.05078125 C-295.918125 131.05078125 -295.258125 131.05078125 -294.578125 131.05078125 C-294.248125 130.06078125 -293.918125 129.07078125 -293.578125 128.05078125 C-292.918125 128.05078125 -292.258125 128.05078125 -291.578125 128.05078125 C-291.578125 127.39078125 -291.578125 126.73078125 -291.578125 126.05078125 C-290.918125 126.05078125 -290.258125 126.05078125 -289.578125 126.05078125 C-289.578125 125.39078125 -289.578125 124.73078125 -289.578125 124.05078125 C-288.918125 124.05078125 -288.258125 124.05078125 -287.578125 124.05078125 C-287.578125 123.39078125 -287.578125 122.73078125 -287.578125 122.05078125 C-286.918125 122.05078125 -286.258125 122.05078125 -285.578125 122.05078125 C-285.578125 121.39078125 -285.578125 120.73078125 -285.578125 120.05078125 C-284.918125 120.05078125 -284.258125 120.05078125 -283.578125 120.05078125 C-283.578125 119.39078125 -283.578125 118.73078125 -283.578125 118.05078125 C-282.918125 118.05078125 -282.258125 118.05078125 -281.578125 118.05078125 C-281.578125 117.39078125 -281.578125 116.73078125 -281.578125 116.05078125 C-280.918125 116.05078125 -280.258125 116.05078125 -279.578125 116.05078125 C-279.578125 115.39078125 -279.578125 114.73078125 -279.578125 114.05078125 C-277.88538216 112.48645338 -276.12242648 110.99749553 -274.328125 109.55078125 C-273.35359375 108.75671875 -272.3790625 107.96265625 -271.375 107.14453125 C-269.12917738 105.46330091 -267.1315447 104.16942226 -264.578125 103.05078125 C-264.578125 102.39078125 -264.578125 101.73078125 -264.578125 101.05078125 C-262.6796875 99.32421875 -262.6796875 99.32421875 -260.203125 97.42578125 C-258.98496094 96.47832031 -258.98496094 96.47832031 -257.7421875 95.51171875 C-255.578125 94.05078125 -255.578125 94.05078125 -253.578125 94.05078125 C-253.578125 93.39078125 -253.578125 92.73078125 -253.578125 92.05078125 C-248.16636029 88.05078125 -248.16636029 88.05078125 -245.578125 88.05078125 C-245.578125 87.39078125 -245.578125 86.73078125 -245.578125 86.05078125 C-243.7421875 84.5703125 -243.7421875 84.5703125 -241.203125 82.86328125 C-240.29175781 82.24324219 -239.38039062 81.62320313 -238.44140625 80.984375 C-237.49652344 80.34628906 -236.55164063 79.70820312 -235.578125 79.05078125 C-233.84645883 77.8460327 -232.11719215 76.63782608 -230.390625 75.42578125 C-229.56046875 74.84699219 -228.7303125 74.26820312 -227.875 73.671875 C-226.49907406 72.70077081 -225.13134776 71.71764083 -223.78125 70.7109375 C-219.56224327 67.56677296 -215.10707874 65.12229143 -210.46484375 62.65234375 C-207.60126064 61.06361699 -204.87931202 59.34495717 -202.140625 57.55078125 C-196.49379745 53.90586572 -190.61970491 50.97829266 -184.578125 48.05078125 C-182.64939936 47.08489012 -180.72438227 46.11183401 -178.79931641 45.13867188 C-123.90073703 17.45871588 -61.78290421 0.0956093 0 0 Z " fill="#F05159" transform="translate(437.578125,29.94921875)"/>
<path d="M0 0 C4.51271141 2.04259569 5.96509134 4.18395799 7.875 8.6875 C8.3803125 9.85410156 8.885625 11.02070313 9.40625 12.22265625 C9.66664063 12.84156738 9.92703125 13.46047852 10.1953125 14.09814453 C10.99583154 15.99014796 11.82135064 17.86903321 12.65625 19.74609375 C15.82143707 26.87593171 18.8677151 34.0523575 21.875 41.25 C24.64685234 47.88221312 27.52824164 54.45501058 30.5 61 C33.67720106 68.00168451 36.7350943 75.03995692 39.69262695 82.13696289 C43.48455274 91.21218786 47.41816017 100.22610766 51.34472656 109.24365234 C54.31134871 116.06409609 57.22411981 122.90108365 60.03051758 129.78930664 C60.81017824 131.9313732 60.81017824 131.9313732 62 133 C62.07244053 135.01964199 62.08377188 137.04167124 62.0625 139.0625 C62.05347656 140.16722656 62.04445313 141.27195312 62.03515625 142.41015625 C62.01775391 143.69212891 62.01775391 143.69212891 62 145 C61.34 145 60.68 145 60 145 C59.731875 145.61875 59.46375 146.2375 59.1875 146.875 C58 149 58 149 55 151 C50.3073604 151.46157111 48.18799163 151.61074954 43.953125 149.43359375 C40.49149702 146.58095588 39.12013428 143.76631928 37.5625 139.6875 C36.97332698 138.24398489 36.38213176 136.80129372 35.7890625 135.359375 C35.49418945 134.63041016 35.19931641 133.90144531 34.89550781 133.15039062 C33.52415556 129.85735064 31.98069727 126.65260087 30.4375 123.4375 C27.76294839 117.80436045 25.3973617 112.09284116 23.13305664 106.28417969 C21.37588961 101.81954703 19.35380814 97.57653736 17.1484375 93.3203125 C15.58175399 90.15497235 14.32341375 86.89621824 13.046875 83.60546875 C11.1954833 78.99771404 9.08920699 74.50378228 7 70 C5.0099736 75.17744157 4.38327796 80.16279223 3.75 85.625 C1.38842596 104.32783719 -2.77831907 122.89121054 -8 141 C-8.34289062 142.25167969 -8.68578125 143.50335937 -9.0390625 144.79296875 C-11.49567182 153.61642434 -14.41769884 162.25117577 -17.5 170.875 C-17.86762451 171.90866699 -18.23524902 172.94233398 -18.61401367 174.00732422 C-20.77686494 179.97344786 -23.16491239 185.76285944 -25.86303711 191.50732422 C-27.02604526 194.0571016 -28.05860037 196.63394957 -29.0625 199.25 C-30.44928165 202.79214107 -32.06555186 205.94853075 -34.0234375 209.19921875 C-35.10302814 211.1899839 -35.84935298 213.18490748 -36.625 215.3125 C-39.55421603 222.95444666 -43.86432557 229.96561747 -47.91845703 237.05224609 C-49.00479619 239.00863748 -50.01393492 240.99147335 -51 243 C-51.66 243 -52.32 243 -53 243 C-53.061875 243.680625 -53.12375 244.36125 -53.1875 245.0625 C-54.13454484 248.48643133 -55.68537411 250.57830045 -57.84375 253.3515625 C-59.196531 255.11311936 -59.196531 255.11311936 -60 258 C-60.66 258 -61.32 258 -62 258 C-62.66 259.98 -63.32 261.96 -64 264 C-64.66 264 -65.32 264 -66 264 C-66.23976563 264.69222656 -66.47953125 265.38445312 -66.7265625 266.09765625 C-68.22513728 269.51311963 -70.21533022 272.42031427 -72.375 275.4375 C-74.69910654 278.72611075 -77.00891487 282.00765951 -79.1640625 285.41015625 C-79.76992188 286.26480469 -80.37578125 287.11945313 -81 288 C-81.66 288 -82.32 288 -83 288 C-83.27457031 288.58394531 -83.54914063 289.16789062 -83.83203125 289.76953125 C-85.78277274 293.49486032 -88.44145373 296.67563035 -91 300 C-91.62003906 300.83144531 -92.24007812 301.66289063 -92.87890625 302.51953125 C-93.49636719 303.33808594 -94.11382813 304.15664063 -94.75 305 C-95.32234375 305.763125 -95.8946875 306.52625 -96.484375 307.3125 C-97.23460937 308.1478125 -97.23460937 308.1478125 -98 309 C-98.66 309 -99.32 309 -100 309 C-100 309.66 -100 310.32 -100 311 C-100.66 311 -101.32 311 -102 311 C-102.27150879 311.59296875 -102.54301758 312.1859375 -102.82275391 312.796875 C-103.97922883 314.96112836 -105.1612757 316.47003054 -106.8359375 318.25 C-107.39974121 318.85263672 -107.96354492 319.45527344 -108.54443359 320.07617188 C-109.14852051 320.71103516 -109.75260742 321.34589844 -110.375 322 C-110.99842285 322.66064453 -111.6218457 323.32128906 -112.26416016 324.00195312 C-135.01342112 348.00447371 -135.01342112 348.00447371 -141 350 C-141 350.66 -141 351.32 -141 352 C-141.66 352 -142.32 352 -143 352 C-143 352.66 -143 353.32 -143 354 C-144.87109375 355.69921875 -144.87109375 355.69921875 -147.4375 357.6875 C-148.34371094 358.39261719 -149.24992188 359.09773438 -150.18359375 359.82421875 C-151.57771484 360.90123047 -151.57771484 360.90123047 -153 362 C-154.28583984 363.03060547 -154.28583984 363.03060547 -155.59765625 364.08203125 C-156.78681641 365.03142578 -156.78681641 365.03142578 -158 366 C-159.0828125 366.86625 -159.0828125 366.86625 -160.1875 367.75 C-162 369 -162 369 -164 369 C-164 369.66 -164 370.32 -164 371 C-165.94944203 372.50652398 -167.889997 373.88847967 -169.9375 375.25 C-170.82078979 375.84735962 -170.82078979 375.84735962 -171.72192383 376.45678711 C-172.91488644 377.26232509 -174.10978981 378.06499654 -175.30664062 378.86474609 C-176.81124946 379.87345876 -178.30489471 380.89848197 -179.796875 381.92578125 C-185.74776253 386 -185.74776253 386 -188 386 C-188 386.66 -188 387.32 -188 388 C-189.98 388.66 -191.96 389.32 -194 390 C-194 390.66 -194 391.32 -194 392 C-195.74681293 392.98484108 -197.4975851 393.96266187 -199.25 394.9375 C-200.71179688 395.75541016 -200.71179688 395.75541016 -202.203125 396.58984375 C-204.53610409 397.76610835 -206.45350762 398.52101691 -209 399 C-209 399.66 -209 400.32 -209 401 C-212.65756459 403.0170393 -216.32596973 405.0131231 -220 407 C-220.7940625 407.43699219 -221.588125 407.87398437 -222.40625 408.32421875 C-224.23123672 409.29459415 -226.11260675 410.15741373 -228 411 C-228.99 410.67 -229.98 410.34 -231 410 C-229.68 409.34 -228.36 408.68 -227 408 C-227 407.34 -227 406.68 -227 406 C-226.26910156 405.63261719 -226.26910156 405.63261719 -225.5234375 405.2578125 C-219.52899164 402.09710468 -214.12757715 398.33538937 -208.69873047 394.30322266 C-204.20409972 391 -204.20409972 391 -202 391 C-202 390.34 -202 389.68 -202 389 C-199.76246465 387.22356837 -197.52777227 385.56762068 -195.1875 383.9375 C-194.54490234 383.47794922 -193.90230469 383.01839844 -193.24023438 382.54492188 C-190.4570241 380.58081183 -188.26197136 379.08732379 -185 378 C-185 377.34 -185 376.68 -185 376 C-180.52941176 372 -180.52941176 372 -178 372 C-178 371.34 -178 370.68 -178 370 C-172.52380952 365 -172.52380952 365 -170 365 C-170 364.34 -170 363.68 -170 363 C-168.35546875 361.37890625 -168.35546875 361.37890625 -166.1875 359.5625 C-163.17536735 357.02660668 -163.17536735 357.02660668 -160.36328125 354.27734375 C-159 353 -159 353 -157 353 C-157 352.34 -157 351.68 -157 351 C-156.34 351 -155.68 351 -155 351 C-155 350.34 -155 349.68 -155 349 C-153.6031942 347.84167324 -152.20277753 346.68744398 -150.78515625 345.5546875 C-146.57095661 341.88455303 -143.08948745 337.41338913 -139.6875 333 C-139.130625 332.34 -138.57375 331.68 -138 331 C-137.34 331 -136.68 331 -136 331 C-136 330.34 -136 329.68 -136 329 C-135.34 329 -134.68 329 -134 329 C-133.690625 328.38125 -133.38125 327.7625 -133.0625 327.125 C-132.375 325.75 -131.6875 324.375 -131 323 C-130.34 323 -129.68 323 -129 323 C-128.71125 322.401875 -128.4225 321.80375 -128.125 321.1875 C-127 319 -127 319 -125 316 C-124.34 316 -123.68 316 -123 316 C-122.7628125 315.47921875 -122.525625 314.9584375 -122.28125 314.421875 C-120.58076777 311.20754883 -118.55778691 308.24135157 -116.5 305.25 C-115.89478516 304.34701172 -115.89478516 304.34701172 -115.27734375 303.42578125 C-114.23779729 301.91277798 -113.12411157 300.45127837 -112 299 C-111.34 299 -110.68 299 -110 299 C-109.75378906 298.29101562 -109.50757813 297.58203125 -109.25390625 296.8515625 C-107.84226317 293.64128385 -106.05572563 291.16598332 -103.9375 288.375 C-100.95254352 284.46223997 -100.95254352 284.46223997 -99 280 C-98.34 280 -97.68 280 -97 280 C-96.34 278.02 -95.68 276.04 -95 274 C-94.34 274 -93.68 274 -93 274 C-92.92007813 273.48179687 -92.84015625 272.96359375 -92.7578125 272.4296875 C-91.68738531 268.9976993 -89.77120346 266.14875968 -87.875 263.125 C-83.8310888 256.53067209 -80.26455564 249.80003312 -76.89453125 242.83300781 C-75.61168983 240.20430328 -74.28930201 237.59600582 -72.97021484 234.98535156 C-67.03711959 223.22014991 -61.50583251 211.39400375 -57 199 C-56.70867187 198.20899902 -56.41734375 197.41799805 -56.1171875 196.60302734 C-50.86386182 182.26582601 -46.53549086 167.79269811 -42.76489258 152.99780273 C-42.26239988 151.02840988 -41.74952127 149.0616323 -41.2253418 147.09790039 C-39.12462391 139.07813647 -37.71541197 130.99873435 -36.4375 122.8125 C-36.32950073 122.12924652 -36.22150146 121.44599304 -36.11022949 120.74203491 C-33.7959197 106.09009081 -31.9051222 91.60647664 -31.34082031 76.77075195 C-31.17009713 72.43183113 -30.83572774 68.27533446 -30 64 C-30.66 64 -31.32 64 -32 64 C-32.25136719 64.56074219 -32.50273438 65.12148438 -32.76171875 65.69921875 C-34.18821979 68.34972069 -35.8992102 70.48948083 -37.8125 72.8125 C-40.29122865 75.84905506 -42.66594578 78.88725188 -44.875 82.125 C-45.57625 83.07375 -46.2775 84.0225 -47 85 C-47.66 85 -48.32 85 -49 85 C-49.3403125 85.7734375 -49.3403125 85.7734375 -49.6875 86.5625 C-51.48217618 89.89547005 -53.49965015 93.14703671 -56 96 C-56.66 96 -57.32 96 -58 96 C-58.37125 97.0828125 -58.37125 97.0828125 -58.75 98.1875 C-60.12269592 101.27606582 -61.72353296 103.51011418 -64 106 C-64.66 106 -65.32 106 -66 106 C-66.185625 106.66 -66.37125 107.32 -66.5625 108 C-68.28637541 111.59765304 -70.57986726 114.06632546 -73.25390625 116.99609375 C-74.79842702 118.76866456 -76.06744983 120.51261803 -77.3125 122.5 C-77.869375 123.325 -78.42625 124.15 -79 125 C-79.66 125 -80.32 125 -81 125 C-81.37125 125.86625 -81.37125 125.86625 -81.75 126.75 C-83.53195718 129.95752293 -85.7014109 132.35070545 -89 134 C-94.20671061 134.64507919 -97.81709835 134.9173523 -102.0625 131.625 C-105.41149064 127.08765785 -105.65279944 123.54406479 -105 118 C-103.75747684 115.61849727 -102.65673379 114.05032248 -101 112 C-99.62414764 110.04226541 -98.24921653 108.0838832 -96.875 106.125 C-95.63901205 104.37596045 -94.36003823 102.6544188 -93 101 C-92.34 101 -91.68 101 -91 101 C-90.6596875 100.2265625 -90.6596875 100.2265625 -90.3125 99.4375 C-88.51782382 96.10452995 -86.50034985 92.85296329 -84 90 C-83.34 90 -82.68 90 -82 90 C-81.75507812 89.27039063 -81.51015625 88.54078125 -81.2578125 87.7890625 C-79.85618011 84.68109503 -78.23038513 82.82886813 -75.875 80.375 C-71.6739262 75.86851696 -68.10992268 71.13204885 -64.62890625 66.0546875 C-64.09136719 65.37664062 -63.55382812 64.69859375 -63 64 C-62.34 64 -61.68 64 -61 64 C-60.73703125 63.42765625 -60.4740625 62.8553125 -60.203125 62.265625 C-58.9232977 59.85556061 -57.45195352 57.88127512 -55.75 55.75 C-52.81088682 52.0500308 -50.00097 48.2835551 -47.26171875 44.43359375 C-46.84535156 43.96050781 -46.42898438 43.48742187 -46 43 C-45.34 43 -44.68 43 -44 43 C-43.814375 42.34 -43.62875 41.68 -43.4375 41 C-41.71362459 37.40234696 -39.42013274 34.93367454 -36.74609375 32.00390625 C-35.20157298 30.23133544 -33.93255017 28.48738197 -32.6875 26.5 C-32.130625 25.675 -31.57375 24.85 -31 24 C-30.34 24 -29.68 24 -29 24 C-28.71125 23.401875 -28.4225 22.80375 -28.125 22.1875 C-27 20 -27 20 -25 17 C-24.34 17 -23.68 17 -23 17 C-22.72671875 16.42121094 -22.4534375 15.84242188 -22.171875 15.24609375 C-17.52085084 6.33163077 -10.98695498 -2.29292973 0 0 Z " fill="#F05158" transform="translate(902,423)"/>
<path d="M0 0 C0.99 0.66 1.98 1.32 3 2 C3.5 4.8125 3.5 4.8125 3 8 C0.625 10.875 0.625 10.875 -2 13 C-2.66 13 -3.32 13 -4 13 C-3.34 13.474375 -2.68 13.94875 -2 14.4375 C0.53623346 17.68704912 0.71296683 19.76613016 0.5 23.8125 C-0.16611826 26.7267674 -1.57679923 28.38519046 -4.0234375 30.078125 C-7.11059866 31.51798673 -10.23672767 32.06643717 -13.5859375 32.59765625 C-16.51434277 33.0857238 -19.21843267 33.97521204 -22 35 C-22 35.99 -22 36.98 -22 38 C-10.8309517 42.06147211 2.12970748 40.33442165 13.375 37.3125 C20.00841726 35.67189264 25.43396993 36.35553481 32 38 C32 38.66 32 39.32 32 40 C32.639375 40.20625 33.27875 40.4125 33.9375 40.625 C36 42 36 42 36.875 44.875 C37.00768126 48.19203153 36.74844896 49.27044645 35 52 C28.48546302 56.82999995 20.7478521 56.66709674 13 56 C9.91386156 55.49770436 7.02338724 54.81990163 4 54 C2.72841566 59.64051567 2.72841566 59.64051567 4 65 C9.74432046 67.69234647 15.78872001 67.38236588 22 67.375 C23.12051758 67.37628906 24.24103516 67.37757813 25.39550781 67.37890625 C32.86444672 67.28367782 38.86259956 66.34692913 45.91796875 63.90234375 C52.00801083 62.11932763 59.03063082 61.51738034 64.80859375 64.40234375 C67 66 67 66 68 68 C68.04241723 70.33294775 68.04092937 72.66702567 68 75 C68 75.99 68 76.98 68 78 C67.01231659 80.71612936 66.39525827 81.76749514 63.875 83.25 C62.946875 83.62125 62.946875 83.62125 62 84 C62 84.66 62 85.32 62 86 C61.34 86 60.68 86 60 86 C60 86.66 60 87.32 60 88 C59.34 88 58.68 88 58 88 C58 88.66 58 89.32 58 90 C56.0324413 91.85999285 53.94444402 93.53390198 51.84765625 95.24609375 C49.75201831 96.96005081 49.75201831 96.96005081 49 100 C55.19247302 99.06673722 61.25792713 97.99006305 67.3125 96.375 C71.72441749 95.22129227 75.45837172 94.69034353 80 95 C80 94.34 80 93.68 80 93 C80.66 93 81.32 93 82 93 C82.23460937 92.44828125 82.46921875 91.8965625 82.7109375 91.328125 C84.32848158 88.40674236 86.36450195 86.20425503 88.625 83.75 C89.85089844 82.41195312 89.85089844 82.41195312 91.1015625 81.046875 C91.72804687 80.37140625 92.35453125 79.6959375 93 79 C92.37351563 78.60167969 91.74703125 78.20335937 91.1015625 77.79296875 C90.28429687 77.26316406 89.46703125 76.73335937 88.625 76.1875 C87.81289062 75.66542969 87.00078125 75.14335938 86.1640625 74.60546875 C84 73 84 73 82 70 C81.875 67.3125 81.875 67.3125 82 65 C88.29259694 64.50646298 88.29259694 64.50646298 91.6875 66.875 C92.450625 67.57625 93.21375 68.2775 94 69 C96.74410886 70.75719686 96.74410886 70.75719686 99.88671875 70.73828125 C102.38583495 69.86520738 103.7775344 68.62739713 105.75 66.875 C108.05847009 65.05252361 109.34200483 64.04923773 112.296875 63.828125 C114.5 64.125 114.5 64.125 118 65 C118.8125 67 118.8125 67 119 70 C117.58832428 72.84968868 115.85115239 75.41863524 114 78 C114.69867188 78.54269531 115.39734375 79.08539062 116.1171875 79.64453125 C117.02726563 80.35996094 117.93734375 81.07539062 118.875 81.8125 C119.77992188 82.52019531 120.68484375 83.22789062 121.6171875 83.95703125 C124 86 124 86 126 89 C126.125 91.6875 126.125 91.6875 126 94 C121.48708152 94.67693777 119.19111429 93.73930443 115.625 91.125 C113.5390625 89.5078125 113.5390625 89.5078125 112 88 C112 87.34 112 86.68 112 86 C111.38125 85.855625 110.7625 85.71125 110.125 85.5625 C108 85 108 85 106 84 C106 84.66 106 85.32 106 86 C105.34 86 104.68 86 104 86 C104 86.66 104 87.32 104 88 C101.80644768 89.87001078 99.60515924 91.63431966 97.3125 93.375 C96.05849131 94.34101287 94.80458335 95.30715651 93.55078125 96.2734375 C92.94572754 96.73459961 92.34067383 97.19576172 91.71728516 97.67089844 C90.17472134 98.86477353 88.6686646 100.10546747 87.16796875 101.3515625 C85 103 85 103 83 103 C83 103.66 83 104.32 83 105 C82.21625 105.226875 81.4325 105.45375 80.625 105.6875 C77.83597889 106.78123446 77.83597889 106.78123446 76.625 109.375 C75.97546503 112.10304687 75.9862533 113.41955386 77 116 C78.01516551 117.24070092 78.01516551 117.24070092 80.125 117.08984375 C90.63924231 116.53270319 103.76250646 113.97488884 111.4375 106.1875 C112.29567104 105.12823166 113.15088208 104.06653912 114 103 C116.7798816 101.6100592 118.9186326 101.81511796 122 102 C124.375 103 124.375 103 126 104 C125.45354896 107.91329453 123.70064387 109.58718985 120.875 112.25 C112.11588992 120.65887753 112.11588992 120.65887753 106 131 C113.51928088 133.50642696 123.20913618 128.38020576 130 125 C130.66 124.67 131.32 124.34 132 124 C132.33 123.01 132.66 122.02 133 121 C133.66 121 134.32 121 135 121 C135.103125 120.401875 135.20625 119.80375 135.3125 119.1875 C136.1576988 116.4982311 136.61349407 115.53968125 139 114 C142.4630901 113.60259622 145.81897402 113.40948701 149 115 C148.46531849 119.46378048 146.78162787 121.98627017 144.125 125.5625 C140.02419411 131.47853717 138.2000576 136.9496616 137 144 C142.69917032 142.53867428 147.56805887 139.84394102 152 136 C153.79271391 132.51202512 153.79271391 132.51202512 155 129 C157.65626804 125.93507534 160.10359995 123.29880002 164 122 C169.35714286 121.67857143 169.35714286 121.67857143 172 123 C172.58353108 126.3344633 172.46121107 128.33542027 170.51171875 131.14453125 C165.73624402 136.63187799 165.73624402 136.63187799 163 138 C164.92382741 139.92382741 168.25661659 139.21841339 170.8125 139.25 C172.05644531 139.27578125 173.30039062 139.3015625 174.58203125 139.328125 C178.19703693 138.98108445 179.3541612 138.34363343 182 136 C182.66 136 183.32 136 184 136 C184 135.34 184 134.68 184 134 C190.23409527 130.23601795 195.69189552 128.7403733 203 130 C205.2890625 131.29296875 205.2890625 131.29296875 207 133 C207.66422379 136.98534273 207.90927149 139.40636516 205.89453125 142.9375 C199.63647509 150.72232053 191.23003572 153.15066221 182 156 C181.91773332 159.04386724 182.02391783 161.07175348 183 164 C189.66551979 164.51055045 194.59054542 163.7789055 200.67578125 160.97265625 C203.10828213 159.95468529 205.40548745 159.43624547 208 159 C208 158.34 208 157.68 208 157 C214.5 153 214.5 153 219 153 C219.12375 152.14019531 219.2475 151.28039062 219.375 150.39453125 C221.54471506 138.61026633 227.25438477 128.21755509 232.99780273 117.85766602 C233.93029159 116.12921102 234.78692333 114.36041989 235.63671875 112.58984375 C237 110 237 110 239.1875 108.5625 C243.53148318 107.69370336 247.97523915 107.98761958 252 110 C252 110.66 252 111.32 252 112 C251.34 112 250.68 112 250 112 C249.690625 112.61875 249.38125 113.2375 249.0625 113.875 C248.375 115.25 247.6875 116.625 247 118 C246.34 118 245.68 118 245 118 C244.74734375 118.84691406 244.4946875 119.69382812 244.234375 120.56640625 C242.90983176 124.25081607 241.16043399 127.53876757 239.25 130.9375 C229.5059513 148.81193329 224.46619125 166.65075191 224 187 C224.66 187 225.32 187 226 187 C226 187.66 226 188.32 226 189 C226.99 189 227.98 189 229 189 C229 188.34 229 187.68 229 187 C229.66 187 230.32 187 231 187 C231 186.34 231 185.68 231 185 C231.66 185 232.32 185 233 185 C233.26683594 184.44441406 233.53367187 183.88882813 233.80859375 183.31640625 C235.57633549 179.87945263 237.63626348 176.63052515 239.66015625 173.33984375 C241.11979157 170.96895375 241.11979157 170.96895375 242 168 C242.66 168 243.32 168 244 168 C244.10699219 167.45472656 244.21398437 166.90945313 244.32421875 166.34765625 C245.1471633 163.4887564 246.44998243 161.08319867 247.8125 158.4375 C250.47588186 152.81972544 251.87723277 147.53726499 253 141.4375 C254.60039788 132.83749413 256.81771994 122.77863649 264 117 C267.5625 116.1875 267.5625 116.1875 271 116 C271.66 116.66 272.32 117.32 273 118 C272.2894726 129.3684384 267.11547704 140.12833085 262.48046875 150.3515625 C256.99702339 163.86485529 256.45882102 177.59862592 257 192 C257.66 192.33 258.32 192.66 259 193 C269.72112658 185.12325394 274.2908899 172.70409547 279.25390625 160.77148438 C279.87346817 159.3004303 280.52633202 157.84345464 281.1875 156.390625 C286.93149145 143.37689437 288.61623308 129.0842458 289 115 C293.41225737 113.52924754 296.48281619 112.63115642 301 114 C301.77812488 126.53645646 299.79992253 137.09204383 296 149 C295.78601563 149.68562012 295.57203125 150.37124023 295.3515625 151.07763672 C290.87247082 165.09899085 283.77192452 179.1636477 275 191 C274.34 191 273.68 191 273 191 C272.60941406 191.87785156 272.60941406 191.87785156 272.2109375 192.7734375 C270.92349225 195.14067554 269.53435473 196.73232086 267.625 198.625 C267.03976562 199.21539063 266.45453125 199.80578125 265.8515625 200.4140625 C263.02363266 202.83629776 260.74418535 203.88916388 257.0625 204.4375 C252.9592363 203.85131947 251.6043477 202.12521724 249 199 C247.3501993 195.70039859 247.61741639 192.00872116 247.4375 188.375 C247.39431641 187.57320312 247.35113281 186.77140625 247.30664062 185.9453125 C247.20048543 183.9637489 247.09973145 181.98189729 247 180 C246.44570313 180.7940625 245.89140625 181.588125 245.3203125 182.40625 C244.59585937 183.4271875 243.87140625 184.448125 243.125 185.5 C242.40570313 186.5209375 241.68640625 187.541875 240.9453125 188.59375 C240.30335938 189.3878125 239.66140625 190.181875 239 191 C238.34 191 237.68 191 237 191 C237 191.66 237 192.32 237 193 C236.34 193 235.68 193 235 193 C234.731875 193.61875 234.46375 194.2375 234.1875 194.875 C233 197 233 197 230 199 C226.91135785 199.6015333 224.08663893 199.62274294 221 199 C218.05683631 196.93425835 216.37678582 194.32113509 215.3828125 190.8359375 C214.86273368 186.98310865 214.85243644 183.19585045 214.875 179.3125 C214.87693359 178.51537598 214.87886719 177.71825195 214.88085938 176.89697266 C214.92250984 171.20821277 215.27141422 165.64653978 216 160 C215.01 160.33 214.02 160.66 213 161 C213 161.66 213 162.32 213 163 C210.44113496 164.32002556 207.87832932 165.63113782 205.3125 166.9375 C204.59126953 167.31068359 203.87003906 167.68386719 203.12695312 168.06835938 C197.30271215 171.02037192 192.56861913 172.14945991 186 172.25 C184.4840625 172.28867187 184.4840625 172.28867187 182.9375 172.328125 C178.35807071 171.816593 174.92938306 169.51525967 172 166 C170.94151366 162.82454097 170.83329122 160.45991204 170.8125 157.125 C170.79832031 156.09632813 170.78414062 155.06765625 170.76953125 154.0078125 C171.00418631 150.94536512 171.70815428 148.76751139 173 146 C172.3709375 146.02320313 171.741875 146.04640625 171.09375 146.0703125 C165.31423902 146.19216966 160.55078502 145.58593858 155 144 C154.34 144 153.68 144 153 144 C153 144.66 153 145.32 153 146 C150.50943858 147.35409164 148.00994955 148.68272152 145.5 150 C144.80390625 150.3815625 144.1078125 150.763125 143.390625 151.15625 C138.31278185 153.78920571 134.71163116 154.41164909 129 154 C126.92817855 150.59336868 126.75816495 147.95164035 126.8125 144 C126.82216797 142.453125 126.82216797 142.453125 126.83203125 140.875 C126.97550208 138.41931318 127.2953959 136.34492245 128 134 C127.11957031 134.34933594 126.23914063 134.69867187 125.33203125 135.05859375 C124.17058594 135.51363281 123.00914062 135.96867188 121.8125 136.4375 C120.66394531 136.88996094 119.51539063 137.34242188 118.33203125 137.80859375 C113.18476191 139.64905934 108.47431816 140.57624402 103 140 C99.5625 138.0625 99.5625 138.0625 97 135 C95.73848875 129.37490065 96.99971261 124.87546701 100 120 C99.31035156 120.26554688 98.62070313 120.53109375 97.91015625 120.8046875 C80.77842195 127.24377556 80.77842195 127.24377556 73 125 C69.28979605 121.8543923 67.25278849 119.76951944 66.5625 114.9375 C67.1632549 109.53070586 69.76044092 106.25192129 73 102 C71.7934375 102.3609375 70.586875 102.721875 69.34375 103.09375 C67.7293289 103.56305846 66.11473627 104.0317771 64.5 104.5 C63.31277344 104.85771484 63.31277344 104.85771484 62.1015625 105.22265625 C56.26787104 106.89625626 50.35003717 108.34001487 44.5 106 C44.005 105.67 43.51 105.34 43 105 C43 104.34 43 103.68 43 103 C42.34 103 41.68 103 41 103 C40.95758277 100.66705225 40.95907063 98.33297433 41 96 C41.33 95.67 41.66 95.34 42 95 C41.11957031 94.96261719 40.23914063 94.92523437 39.33203125 94.88671875 C38.17058594 94.82097656 37.00914062 94.75523437 35.8125 94.6875 C34.66394531 94.62949219 33.51539063 94.57148437 32.33203125 94.51171875 C28.14543591 93.86875979 25.21506823 92.60168084 22.625 89.1875 C21.50042641 85.25149243 22.73878198 81.78365405 24 78 C24.66 78 25.32 78 26 78 C26.495 76.515 26.495 76.515 27 75 C26.10539062 75.02320313 25.21078125 75.04640625 24.2890625 75.0703125 C4.42787286 75.36674817 4.42787286 75.36674817 -3 69 C-6.98730117 64.59298292 -7.42603628 61.16809669 -7.3359375 55.46484375 C-6.96315611 52.72966863 -6.12016616 50.51365287 -5 48 C-6.14597656 47.95101562 -7.29195312 47.90203125 -8.47265625 47.8515625 C-10.00262535 47.77647199 -11.53257218 47.70092694 -13.0625 47.625 C-13.81466797 47.5940625 -14.56683594 47.563125 -15.34179688 47.53125 C-20.18961281 47.27941541 -24.38308043 46.50831635 -29 45 C-29 44.34 -29 43.68 -29 43 C-29.66 43 -30.32 43 -31 43 C-31 42.34 -31 41.68 -31 41 C-31.66 41 -32.32 41 -33 41 C-33.16346226 39.44105441 -33.27907115 37.8770539 -33.375 36.3125 C-33.44460937 35.44238281 -33.51421875 34.57226562 -33.5859375 33.67578125 C-32.87727428 30.43955253 -31.50243265 29.07263967 -28.88037109 27.10473633 C-25.49975459 25.11859121 -21.899148 24.16302131 -18.125 23.1875 C-17.34125 22.97158203 -16.5575 22.75566406 -15.75 22.53320312 C-13.83707211 22.00831437 -11.91901154 21.50219122 -10 21 C-10 20.01 -10 19.02 -10 18 C-10.99 17.67 -11.98 17.34 -13 17 C-13 16.34 -13 15.68 -13 15 C-14.2375 15.27263672 -14.2375 15.27263672 -15.5 15.55078125 C-22.17379647 17.00322579 -28.85530867 18.39831543 -35.5625 19.6875 C-36.22830078 19.81874268 -36.89410156 19.94998535 -37.58007812 20.08520508 C-41.10137782 20.75148145 -44.41605395 21.14445848 -48 21 C-48.33 19.68 -48.66 18.36 -49 17 C-43.59882945 14.57528096 -38.14559917 12.64984081 -32.5 10.875 C-31.68402344 10.61074219 -30.86804688 10.34648438 -30.02734375 10.07421875 C-25.34357005 8.59315387 -20.88431443 7.53832498 -16 7 C-15.979375 6.401875 -15.95875 5.80375 -15.9375 5.1875 C-15 3 -15 3 -11.9375 1.25 C-7.82193067 -0.30288492 -4.37046704 -0.36420559 0 0 Z M16.875 44.875 C15.54082031 45.39707031 15.54082031 45.39707031 14.1796875 45.9296875 C11.84647055 46.8022758 11.84647055 46.8022758 11 49 C12.74991334 49.02715383 14.49994945 49.04646551 16.25 49.0625 C17.22453125 49.07410156 18.1990625 49.08570313 19.203125 49.09765625 C21.69783594 49.01055042 23.68602901 48.92877276 26 48 C26.33 47.01 26.66 46.02 27 45 C26.34 44.34 25.68 43.68 25 43 C21.75605396 43 19.86804606 43.67952679 16.875 44.875 Z M37.125 79.0625 C35.16630809 80.91623956 35.16630809 80.91623956 34 83 C34.20773269 85.2065028 34.20773269 85.2065028 35 87 C39.77346006 88.16425855 43.58991681 88.20075996 48 86 C51.53084943 83.55477046 54.90826728 80.98597928 58 78 C58 77.34 58 76.68 58 76 C57.34 76 56.68 76 56 76 C56.66 74.02 57.32 72.04 58 70 C50.38455405 70 42.57518611 73.9017043 37.125 79.0625 Z M189.875 140.3125 C188.81925781 141.23482422 188.81925781 141.23482422 187.7421875 142.17578125 C185.76893755 143.98230739 185.76893755 143.98230739 185 147 C186.44096586 146.57405412 187.87768712 146.13373367 189.3125 145.6875 C190.51326172 145.32205078 190.51326172 145.32205078 191.73828125 144.94921875 C194.17311097 143.92734721 195.4397143 143.12582615 197 141 C197 139.68 197 138.36 197 137 C193.28053558 137 192.59485764 137.88871542 189.875 140.3125 Z " fill="#F05158" transform="translate(149,738)"/>
<path d="M0 0 C1.25703257 3.55290947 0.7350314 5.58922203 -0.51953125 9.09375 C-0.87740723 10.10993408 -1.2352832 11.12611816 -1.60400391 12.1730957 C-2.00280762 13.27097412 -2.40161133 14.36885254 -2.8125 15.5 C-3.21903809 16.64621826 -3.62557617 17.79243652 -4.04443359 18.97338867 C-5.35217522 22.65287764 -6.67498922 26.32669801 -8 30 C-9.2874282 33.59038131 -10.57288268 37.18146392 -11.85791016 40.77270508 C-12.70119085 43.12852912 -13.54591277 45.48383779 -14.39208984 47.83862305 C-17.30440087 55.96715847 -20.09800792 64.12784424 -22.75634766 72.34301758 C-23.91188247 75.88609661 -25.10619524 79.35416929 -26.6015625 82.76953125 C-28.08270063 86.19104307 -29.09090005 89.5888744 -30.05859375 93.1796875 C-31 95 -31 95 -33.09765625 95.7578125 C-34.03931641 95.87769531 -34.03931641 95.87769531 -35 96 C-35 96.66 -35 97.32 -35 98 C-35.74830078 98.4021875 -35.74830078 98.4021875 -36.51171875 98.8125 C-42.82634951 102.2589053 -48.93498778 106.00108791 -55.04736328 109.79199219 C-58.81584941 112.12338371 -62.59541414 114.43666282 -66.375 116.75 C-67.12386475 117.20971191 -67.87272949 117.66942383 -68.64428711 118.14306641 C-71.95246117 120.16769694 -75.26583936 122.1644452 -78.6484375 124.0625 C-83.04485728 126.60402006 -87.16133812 129.49291027 -91.328125 132.390625 C-94 134 -94 134 -97 134 C-97 134.66 -97 135.32 -97 136 C-98.74681293 136.98484108 -100.4975851 137.96266187 -102.25 138.9375 C-103.22453125 139.48277344 -104.1990625 140.02804687 -105.203125 140.58984375 C-107.53610409 141.76610835 -109.45350762 142.52101691 -112 143 C-112 143.66 -112 144.32 -112 145 C-113.85724317 146.2881825 -115.78262006 147.47841732 -117.73046875 148.625 C-118.31790359 148.97256348 -118.90533844 149.32012695 -119.51057434 149.67822266 C-120.75865241 150.41463408 -122.00886232 151.14744225 -123.26098633 151.87695312 C-125.16661807 152.98782703 -127.06518404 154.11002769 -128.96289062 155.234375 C-139.08304175 161.18936142 -139.08304175 161.18936142 -144 163 C-143.40597251 157.4943794 -142.02779919 152.68860852 -140.125 147.5 C-139.74021484 146.41912109 -139.74021484 146.41912109 -139.34765625 145.31640625 C-138.14720899 141.98048999 -136.87872969 138.72002646 -135.46875 135.46484375 C-133.88315948 131.72436824 -132.61157234 127.92717376 -131.375 124.0625 C-128.63324005 115.65355314 -125.56681021 107.38731039 -122.38598633 99.13525391 C-120.4810886 94.14610325 -118.7078192 89.17702436 -117.21875 84.046875 C-112.66201324 68.47058746 -112.66201324 68.47058746 -106.75 64.3125 C-105.19170962 63.49221982 -103.61049867 62.71233595 -102 62 C-101.01 61.34 -100.02 60.68 -99 60 C-98.01 60 -97.02 60 -96 60 C-96 59.34 -96 58.68 -96 58 C-95.25621094 57.58492188 -94.51242187 57.16984375 -93.74609375 56.7421875 C-83.86866931 51.16791491 -74.18950828 45.28636722 -64.515625 39.3671875 C-63.14567383 38.5313916 -63.14567383 38.5313916 -61.74804688 37.67871094 C-59.8767158 36.53556306 -58.00833232 35.38757912 -56.14257812 34.23535156 C-55.24474609 33.68588867 -54.34691406 33.13642578 -53.421875 32.5703125 C-52.6184668 32.07547363 -51.81505859 31.58063477 -50.98730469 31.07080078 C-49 30 -49 30 -47 30 C-47 29.34 -47 28.68 -47 28 C-40.375 24 -40.375 24 -37 24 C-37 23.34 -37 22.68 -37 22 C-34.52783905 20.40900533 -32.05885382 18.93999271 -29.5 17.5 C-27.94286749 16.60615478 -26.38690659 15.71026591 -24.83203125 14.8125 C-24.0323291 14.35101563 -23.23262695 13.88953125 -22.40869141 13.4140625 C-17.93476704 10.78757051 -13.558379 8.00601555 -9.1796875 5.22460938 C-6.18297914 3.32917583 -3.22034286 1.49255185 0 0 Z M-22.25 28 C-22.97364746 28.40790771 -23.69729492 28.81581543 -24.44287109 29.23608398 C-29.97391257 32.37366423 -35.38578097 35.66575942 -40.78125 39.03125 C-44.19035031 41.11642786 -47.64484934 43.09944722 -51.125 45.0625 C-55.39091811 47.4691405 -59.57465313 49.96305786 -63.6875 52.625 C-68.04430818 55.43850732 -72.49190167 57.96254891 -77.0625 60.41015625 C-80.93763327 62.50746907 -84.76757881 64.68123117 -88.57275391 66.90258789 C-91.63827569 68.68611065 -94.71398909 70.37465849 -97.8984375 71.9375 C-104.7071902 75.17149439 -104.7071902 75.17149439 -109.54296875 80.7265625 C-110.28035931 83.18453102 -110.7802932 85.44721626 -111 88 C-110.34 88 -109.68 88 -109 88 C-109 87.34 -109 86.68 -109 86 C-108.18208984 85.85111328 -108.18208984 85.85111328 -107.34765625 85.69921875 C-104.39156624 84.81878595 -102.07867083 83.40564299 -99.4375 81.8125 C-95.43785589 79.42828393 -91.42258362 77.12568536 -87.3125 74.9375 C-83.91614916 73.10570562 -80.68494653 71.17798297 -77.5 69 C-70.09025552 63.93645368 -62.04500755 59.94660748 -54 56 C-54 55.34 -54 54.68 -54 54 C-53.46761719 53.90589844 -52.93523437 53.81179688 -52.38671875 53.71484375 C-47.25105421 52.17666599 -42.70472803 48.92585233 -38.09716797 46.22070312 C-35.88899123 44.93538488 -33.66668379 43.67732869 -31.44140625 42.421875 C-29.91906223 41.55244849 -28.39692332 40.68266273 -26.875 39.8125 C-26.1528833 39.409104 -25.4307666 39.00570801 -24.68676758 38.59008789 C-20.59286998 36.22512192 -17.62297007 34.05967227 -15 30 C-14.20309162 26.81237891 -14.20309162 26.81237891 -14 24 C-16.66691521 24 -19.90281913 26.67283058 -22.25 28 Z " fill="#F05159" transform="translate(532,378)"/>
<path d="M0 0 C2.72041745 5.44083491 1.36278989 15.33459864 0.5 21.3125 C-0.12179469 25.89823586 -0.08518705 30.38096868 0 35 C0.66 34.01 1.32 33.02 2 32 C2.66 32 3.32 32 4 32 C4 31.34 4 30.68 4 30 C10.06060606 26 10.06060606 26 14.25 26 C17.52180051 27.18974564 18.51121275 27.85700468 20 31 C20.72552146 36.38958796 19.46557683 39.7222965 16.875 44.30078125 C15.84739675 45.97780435 15.84739675 45.97780435 16 48 C16.66 48.99 17.32 49.98 18 51 C18.1953125 53.26171875 18.1953125 53.26171875 18.125 55.6875 C18.10695313 56.49574219 18.08890625 57.30398438 18.0703125 58.13671875 C18.04710937 58.75160156 18.02390625 59.36648438 18 60 C18.99 60 19.98 60 21 60 C21.66 60 22.32 60 23 60 C24.14103403 57.72339142 25.27480836 55.44349393 26.40234375 53.16015625 C26.90894531 52.13792969 27.41554688 51.11570312 27.9375 50.0625 C28.44152344 49.04285156 28.94554687 48.02320313 29.46484375 46.97265625 C32.43981861 41.21195429 32.43981861 41.21195429 34 39 C34.99 39 35.98 39 37 39 C37.36116046 37.5225254 37.71375048 36.04295325 38.0625 34.5625 C38.25972656 33.73878906 38.45695313 32.91507813 38.66015625 32.06640625 C38.82837891 31.04353516 38.82837891 31.04353516 39 30 C38.67 29.67 38.34 29.34 38 29 C37.43052247 24.04274478 37.54656172 20.03383927 39.5625 15.4375 C42 13 42 13 45.5625 12 C49 12 49 12 52 14 C51.84660156 14.54527344 51.69320312 15.09054687 51.53515625 15.65234375 C50.75167628 19.44024276 50.42786214 21.94570442 52.31640625 25.42578125 C54.96571556 28.8304012 57.86357025 31.91672177 60.9375 34.9375 C61.618125 35.618125 62.29875 36.29875 63 37 C63 37.66 63 38.32 63 39 C63.66 39 64.32 39 65 39 C65.53449652 46.24539726 64.71607548 50.72912263 61 57 C60.34 57 59.68 57 59 57 C59 57.66 59 58.32 59 59 C58.34 59 57.68 59 57 59 C57 59.66 57 60.32 57 61 C47.16288175 61.7752545 47.16288175 61.7752545 42.8125 58.875 C40.65336032 55.45015775 40.17369134 53.96628159 41 50 C43.375 47.125 43.375 47.125 46 45 C46.66 45 47.32 45 48 45 C48.928125 46.485 48.928125 46.485 49.875 48 C50.57625 48.99 51.2775 49.98 52 51 C53.32 51 54.64 51 56 51 C56.33 50.01 56.66 49.02 57 48 C55.71488126 45.96868328 54.38123963 43.96722008 53 42 C53 41.34 53 40.68 53 40 C52.34 40 51.68 40 51 40 C51 39.34 51 38.68 51 38 C50.34 38 49.68 38 49 38 C48.01 35.525 48.01 35.525 47 33 C46.01 33 45.02 33 44 33 C43.8453125 34.546875 43.8453125 34.546875 43.6875 36.125 C43.00872203 39.95083945 41.88841205 42.63370025 40 46 C39.01 46 38.02 46 37 46 C36.7525 47.01191406 36.505 48.02382813 36.25 49.06640625 C35.10810636 53.05599769 33.21156453 56.44787553 31 59.9375 C30.46632813 60.82018555 30.46632813 60.82018555 29.921875 61.72070312 C29.00905176 63.18701061 28.01088903 64.59949749 27 66 C26.34 66 25.68 66 25 66 C25 66.66 25 67.32 25 68 C20.82561234 70.38536438 17.83415572 71.6445541 13 71 C10.96332385 69.45493534 10.13926922 68.27853844 9 66 C8.77377919 64.29636178 8.59111527 62.58671299 8.4375 60.875 C8.35371094 59.96492187 8.26992188 59.05484375 8.18359375 58.1171875 C8.12300781 57.41851563 8.06242188 56.71984375 8 56 C7.67 56.33 7.34 56.66 7 57 C4.5625 57.1875 4.5625 57.1875 2 57 C-0.1385485 54.8614515 -0.42655063 53.86724686 -1 51 C-2.2263757 53.45275141 -2.11415314 55.0505781 -2.09765625 57.7890625 C-2.09443359 58.73007812 -2.09121094 59.67109375 -2.08789062 60.640625 C-2.07951172 61.62546875 -2.07113281 62.6103125 -2.0625 63.625 C-2.05798828 64.61757813 -2.05347656 65.61015625 -2.04882812 66.6328125 C-2.03702145 69.0886016 -2.020554 71.54427104 -2 74 C-8.15234375 74.87890625 -8.15234375 74.87890625 -10 75 C-11 74 -11 74 -11.09765625 70.62109375 C-11.09098369 69.22652923 -11.07902532 67.83198257 -11.0625 66.4375 C-11.05798828 65.72658203 -11.05347656 65.01566406 -11.04882812 64.28320312 C-11.03700864 62.52209987 -11.01907263 60.76103964 -11 59 C-11.4846875 59.7734375 -11.969375 60.546875 -12.46875 61.34375 C-22.32846715 76.66423358 -22.32846715 76.66423358 -29 80 C-36.01699346 80.69019608 -36.01699346 80.69019608 -39.9375 77.9375 C-42.46896587 74.33207892 -42.82383384 72.40415411 -43 68 C-42.15352936 64.72103632 -40.89294295 61.67187797 -39.5625 58.5625 C-39.22412109 57.73556641 -38.88574219 56.90863281 -38.53710938 56.05664062 C-37.70586839 54.03122245 -36.86010491 52.01328969 -36 50 C-38.96966982 50.06455804 -41.21106675 50.11939128 -44 51 C-45.74707756 53.39979612 -46.6182736 54.99245812 -47.625 57.6875 C-48.04628174 58.68450928 -48.04628174 58.68450928 -48.47607422 59.70166016 C-49.35190042 61.78895557 -50.18139853 63.88966489 -51 66 C-51.78276148 68.0077262 -52.56902802 70.01304613 -53.37646484 72.01098633 C-54.08969579 73.78708493 -54.76845234 75.5769124 -55.4453125 77.3671875 C-57 80 -57 80 -59.6796875 80.8828125 C-60.44539063 80.92148437 -61.21109375 80.96015625 -62 81 C-63.22095366 77.50347185 -62.76884532 75.47527427 -61.56640625 72.015625 C-61.24736328 71.08105469 -60.92832031 70.14648438 -60.59960938 69.18359375 C-60.25736328 68.21550781 -59.91511719 67.24742187 -59.5625 66.25 C-59.22412109 65.26644531 -58.88574219 64.28289062 -58.53710938 63.26953125 C-57.7007587 60.84293634 -56.85478572 58.42014972 -56 56 C-56.9125354 56.62575928 -56.9125354 56.62575928 -57.84350586 57.26416016 C-58.64667236 57.80862793 -59.44983887 58.3530957 -60.27734375 58.9140625 C-61.07132568 59.45498535 -61.86530762 59.9959082 -62.68334961 60.55322266 C-65.35050867 62.21889708 -67.95773403 63.2199318 -71 64 C-71.0928125 65.2375 -71.0928125 65.2375 -71.1875 66.5 C-72.52734616 72.271645 -75.34613323 76.38647144 -79.5625 80.5 C-84.6043117 82.70006329 -89.57167721 82.67364468 -95 82 C-95.99 81.34 -96.98 80.68 -98 80 C-98 79.34 -98 78.68 -98 78 C-98.66 78 -99.32 78 -100 78 C-103.20153793 69.38542004 -103.20763775 61.13575666 -99.8125 52.5625 C-97.12287322 46.79466013 -94.3659174 42.57727827 -89 39 C-84.08491572 38.27246601 -80.06691393 38.49564069 -75.5625 40.625 C-71.49530775 44.39459281 -70.08099675 47.32606722 -69.8125 52.875 C-69.9053125 54.421875 -69.9053125 54.421875 -70 56 C-69.15695312 55.4946875 -68.31390625 54.989375 -67.4453125 54.46875 C-65.80175781 53.49421875 -65.80175781 53.49421875 -64.125 52.5 C-62.48917969 51.52546875 -62.48917969 51.52546875 -60.8203125 50.53125 C-58 49 -58 49 -56 49 C-56 48.34 -56 47.68 -56 47 C-55.34 47 -54.68 47 -54 47 C-54.061875 45.824375 -54.12375 44.64875 -54.1875 43.4375 C-54.21144173 38.96039699 -52.9879056 35.9758112 -51 32 C-50.34 32 -49.68 32 -49 32 C-49 31.34 -49 30.68 -49 30 C-42.59903382 29.51690821 -42.59903382 29.51690821 -40.0625 31.5625 C-38.65092195 34.80082611 -38.79854653 37.50813979 -39 41 C-37.7625 40.9175 -36.525 40.835 -35.25 40.75 C-32.37295224 40.78570804 -31.10303697 40.94590559 -28.5 42.3125 C-26.02595761 46.74515928 -26.19644495 51.05813645 -27 56 C-28.08919786 58.49737509 -29.35857757 60.68854274 -30.8203125 62.984375 C-32.34253159 65.58525266 -32.77050305 68.01653961 -33 71 C-31.35 71 -29.7 71 -28 71 C-28 70.34 -28 69.68 -28 69 C-26.81485983 67.83818102 -25.62771716 66.67832918 -24.43017578 65.52929688 C-21.29578712 62.17767336 -19.0570965 58.07084454 -16.66210938 54.17578125 C-16.24638672 53.52480469 -15.83066406 52.87382813 -15.40234375 52.203125 C-15.03616943 51.61176758 -14.66999512 51.02041016 -14.29272461 50.41113281 C-12.659203 48.62798741 -11.3483269 48.38059198 -9 48 C-9.09504999 43.82282356 -9.20143114 39.64611864 -9.31738281 35.46948242 C-9.35517053 34.05484477 -9.39010066 32.64012728 -9.421875 31.2253418 C-9.61223052 22.84672455 -10.15033588 14.80164241 -11.87744141 6.56323242 C-12 4 -12 4 -10.67333984 2.20825195 C-7.11071527 -0.36417714 -4.33482374 -0.08027451 0 0 Z M6.375 38.375 C4.78468592 39.89968321 4.78468592 39.89968321 5 42 C4.34 42 3.68 42 3 42 C2.34 43.98 1.68 45.96 1 48 C6.15123715 46.97408205 6.15123715 46.97408205 10 43.625 C11.0708004 40.81414895 11.11623524 39.73985012 10 37 C7.89968321 36.78468592 7.89968321 36.78468592 6.375 38.375 Z M-85.6875 47.0625 C-87.72262773 50.06673617 -87.37794588 52.47250511 -87 56 C-85.35674426 58.59461433 -84.29740522 58.92391959 -81.3125 59.6875 C-80.1678125 59.8421875 -80.1678125 59.8421875 -79 60 C-77.8604078 53.87740368 -77.8604078 53.87740368 -79.25 47.9375 C-79.8275 47.298125 -80.405 46.65875 -81 46 C-83.90923892 45.73359337 -83.90923892 45.73359337 -85.6875 47.0625 Z M-93 61 C-93.08114106 62.77007714 -93.13925505 64.54122098 -93.1875 66.3125 C-93.22230469 67.29863281 -93.25710938 68.28476562 -93.29296875 69.30078125 C-93.23055198 72.02261351 -93.23055198 72.02261351 -91.60546875 73.8515625 C-90.0744999 75.17095312 -90.0744999 75.17095312 -88.125 75.0625 C-84.82592888 73.41296444 -83.20550599 70.94067465 -81 68 C-81 67.67 -81 67.34 -81 67 C-82.051875 66.7525 -83.10375 66.505 -84.1875 66.25 C-87.8133541 65.23299214 -90.19910772 63.54626571 -93 61 Z " fill="#F05158" transform="translate(551,846)"/>
<path d="M0 0 C4.28967514 4.06390276 6.58449611 7.86980053 6.875 13.75 C6.68069325 18.47003471 5.00387116 21.38884548 2.375 25.25 C1.715 25.25 1.055 25.25 0.375 25.25 C0.375 25.91 0.375 26.57 0.375 27.25 C-6.77715035 31.37907649 -13.18450326 34.91567678 -21.625 33.25 C-23.11 32.26 -23.11 32.26 -24.625 31.25 C-24.91796875 28.8671875 -24.91796875 28.8671875 -24.8125 26.125 C-24.77189453 24.75988281 -24.77189453 24.75988281 -24.73046875 23.3671875 C-24.69566406 22.66851563 -24.66085938 21.96984375 -24.625 21.25 C-21.82998973 20.46941155 -19.2665219 20.14561621 -16.375 20 C-11.32514658 19.46491619 -7.37676244 17.70506694 -3.625 14.25 C-2.50286106 11.59148231 -2.50286106 11.59148231 -2.625 9.25 C-8.48805922 3.90426953 -14.10603736 3.99915595 -21.71484375 4.1015625 C-32.15636645 4.63415023 -43.55644381 7.62384292 -52.87890625 12.40625 C-54.625 13.25 -54.625 13.25 -57.625 13.25 C-57.625 13.91 -57.625 14.57 -57.625 15.25 C-58.91413487 15.92154933 -60.20640204 16.58708859 -61.5 17.25 C-62.21929687 17.62125 -62.93859375 17.9925 -63.6796875 18.375 C-65.625 19.25 -65.625 19.25 -67.625 19.25 C-67.625 19.91 -67.625 20.57 -67.625 21.25 C-68.87971154 22.35589691 -70.17966947 23.41083729 -71.5 24.4375 C-75.33230173 27.71844038 -77.15194499 30.04639485 -77.625 35.25 C-76.51196806 39.30461634 -74.85623105 41.44388229 -71.3125 43.5625 C-65.45549317 46.21079014 -58.95121459 46.07229734 -52.625 46.25 C-52.13 48.725 -52.13 48.725 -51.625 51.25 C-57.40546335 54.84132748 -65.66829511 54.10230907 -72.109375 52.71484375 C-77.8675508 50.67270001 -83.44640823 47.60341771 -86.625 42.25 C-88.90036939 34.80333654 -88.22115634 27.11667648 -84.625 20.25 C-83.09233683 17.71965986 -81.50204392 15.56020791 -79.625 13.25 C-78.965 13.25 -78.305 13.25 -77.625 13.25 C-77.625 12.59 -77.625 11.93 -77.625 11.25 C-57.74586923 -4.915447 -22.93993069 -15.29328713 0 0 Z " fill="#F05158" transform="translate(150.625,695.75)"/>
<path d="M0 0 C6.09992198 0.35191858 10.68151173 2.02543372 16.25 4.46875 C23.47777245 7.52478802 31.05295407 9.75374548 38.50708008 12.1862793 C46.77746016 14.88583633 54.89813961 17.82454556 63 21 C64.32064453 21.51240234 64.32064453 21.51240234 65.66796875 22.03515625 C70.85321317 24.07133331 75.92388009 26.29346283 80.96875 28.65625 C89.44176565 32.4123291 97.82722464 35.15354067 106.8125 37.4375 C114.5629626 39.46635772 122.08863332 41.55761978 129.5 44.62890625 C134.47615546 46.57827072 139.54792909 48.20956629 144.625 49.875 C153.00648456 52.63300988 161.31392369 55.52934093 169.57788086 58.62084961 C175.67267928 60.89750841 181.8050225 63.00919885 188 65 C187 68 187 68 184.8984375 69.34765625 C180.9283955 70.24118322 178.23058822 68.9791243 174.625 67.4375 C173.1871872 66.85951209 171.74835998 66.28404208 170.30859375 65.7109375 C169.58526855 65.41928711 168.86194336 65.12763672 168.11669922 64.82714844 C165.01302193 63.61431584 161.8572947 62.58812304 158.6875 61.5625 C153.21782139 59.76953481 147.82509699 57.83727135 142.4375 55.8125 C132.49217714 52.08234666 122.41237442 48.76385622 112.31811523 45.46411133 C106.41688308 43.52374274 100.67746347 41.51368612 95 39 C92.55089326 38.13992825 90.09214712 37.30686573 87.625 36.5 C86.40039062 36.0978125 85.17578125 35.695625 83.9140625 35.28125 C81.88798846 34.61718387 79.86136317 33.95514645 77.83276367 33.29882812 C72.49440203 31.55238071 67.27799337 29.58190244 62.0625 27.5 C56.51419058 25.30872276 51.0150481 23.22618971 45.23828125 21.703125 C43 21 43 21 39.9609375 19.6640625 C34.87802462 17.44033059 29.58491043 15.8344399 24.3125 14.125 C16.04392537 11.41218677 7.92497456 8.61490068 0 5 C0 3.35 0 1.7 0 0 Z " fill="#F05159" transform="translate(278,677)"/>
<path d="M0 0 C1.85598719 0.42971132 3.70971264 0.86919505 5.5625 1.3125 C7.11130859 1.67794922 7.11130859 1.67794922 8.69140625 2.05078125 C12.29070997 3.08340322 15.56829475 4.50615462 19 6 C21.47030818 6.85923763 23.94984656 7.69235393 26.4375 8.5 C30.93163553 9.96211709 35.36552772 11.49798131 39.78344727 13.17431641 C44.24567228 14.83653086 48.75117498 16.37774497 53.25 17.9375 C54.26835937 18.29158936 55.28671875 18.64567871 56.3359375 19.01049805 C62.37206095 21.10471255 68.41525219 23.16426047 74.5 25.11328125 C76.46821016 25.81138079 78.40113795 26.60897515 80.31640625 27.44140625 C84.13258242 29.05609797 87.99599629 30.36382653 91.9375 31.625 C99.24734521 34.00854534 106.44103765 36.63697473 113.625 39.375 C122.91553271 42.91077096 132.27376442 46.14789791 141.71923828 49.24365234 C148.90894043 51.60813179 155.98575222 54.15046184 163 57 C163 57.99 163 58.98 163 60 C159.48741021 61.75629489 156.36870291 61.41851489 152.64941406 60.28125 C149.78875152 59.23216414 146.95628933 58.12595676 144.125 57 C135.81144095 53.78217556 127.47749885 50.75726854 119 48 C109.69260005 44.96014774 100.52774186 41.62718044 91.37597656 38.14892578 C84.87645285 35.6845141 78.3593995 33.38833109 71.75 31.234375 C67.23222769 29.74727495 62.73965593 28.19464504 58.25 26.625 C57.40348877 26.32907959 56.55697754 26.03315918 55.68481445 25.72827148 C49.12470243 23.42198697 42.61105354 21.000676 36.09936523 18.56176758 C29.63769109 16.17072581 23.10049486 14.07611637 16.49194336 12.12866211 C11.49433899 10.61834577 6.33213622 8.98563443 2 6 C0.5 2.75 0.5 2.75 0 0 Z " fill="#F05159" transform="translate(285,694)"/>
<path d="M0 0 C6.52797554 1.90435029 12.9678025 3.97366457 19.375 6.25 C21.13670061 6.87114521 22.89841988 7.49223749 24.66015625 8.11328125 C25.54848145 8.4273291 26.43680664 8.74137695 27.35205078 9.06494141 C31.50267582 10.53063326 35.65757754 11.98404496 39.8125 13.4375 C40.63258545 13.7247998 41.4526709 14.01209961 42.29760742 14.30810547 C46.69317529 15.84717104 51.09102677 17.37934103 55.4921875 18.90234375 C71.80056014 24.54830799 88.04151873 30.37241469 104.2578125 36.27734375 C105.25611084 36.64085937 106.25440918 37.004375 107.28295898 37.37890625 C109.16303708 38.06412258 111.04277979 38.75026011 112.92211914 39.4375 C117.26245869 41.02137808 121.60611181 42.56893003 126 44 C126 44.66 126 45.32 126 46 C117.03347608 47.58344997 110.86099003 45.8350508 102.4921875 42.67578125 C96.77052824 40.52499207 91.0081801 38.48799145 85.25 36.4375 C83.38418589 35.77228066 81.51837226 35.10705995 79.65258789 34.4417572 C78.36795009 33.98371564 77.08328184 33.52575946 75.79858398 33.06788635 C71.41146737 31.50413806 67.02570309 29.93664575 62.640625 28.3671875 C52.20750425 24.63383286 41.77259923 20.90718344 31.3125 17.25 C30.52093506 16.97148193 29.72937012 16.69296387 28.91381836 16.40600586 C25.01178021 15.03598954 21.10266966 13.69943553 17.171875 12.4140625 C16.39545654 12.15463867 15.61903809 11.89521484 14.8190918 11.62792969 C13.37147911 11.14492227 11.92003136 10.67317739 10.46411133 10.21582031 C5.89535533 8.67488231 3.03409728 6.7531608 0 3 C0 2.01 0 1.02 0 0 Z " fill="#F05159" transform="translate(300,714)"/>
<path d="M0 0 C7.91290691 1.98821654 15.45967151 4.55226228 23.0625 7.5 C29.61807315 10.03198045 36.13161927 12.44481393 42.89648438 14.36157227 C47.75407509 15.83587586 51.40317853 17.52769636 54 22 C54 22.66 54 23.32 54 24 C49.62180526 23.55324543 46.13436081 22.65515355 42.13061523 20.88061523 C37.70559471 19.05168788 33.11308374 17.66801779 28.5625 16.1875 C18.94513728 13.02482204 9.43711519 9.66382119 0 6 C0 4.02 0 2.04 0 0 Z " fill="#F05159" transform="translate(274,660)"/>
<path d="M0 0 C2.01424417 0.67931276 4.03105563 1.35052776 6.04833984 2.02075195 C12.10821066 4.04934888 18.03440757 6.17773509 23.88818359 8.74145508 C25.55239709 9.41422224 27.21804942 10.08352343 28.88818359 10.74145508 C28.88818359 11.73145508 28.88818359 12.72145508 28.88818359 13.74145508 C25.24176543 15.56466416 21.78411183 15.02482404 17.98583984 13.82348633 C16.98423828 13.40454102 15.98263672 12.9855957 14.95068359 12.55395508 C10.05321741 10.57817729 5.15260091 8.76352646 0.13818359 7.11645508 C-0.49941895 6.90617676 -1.13702148 6.69589844 -1.79394531 6.47924805 C-4.4301408 5.61286374 -7.0691275 4.75525676 -9.70947266 3.90161133 C-15.27733979 2.0849351 -20.69569537 -0.03103794 -26.11181641 -2.25854492 C-25.78181641 -3.24854492 -25.45181641 -4.23854492 -25.11181641 -5.25854492 C-17.47656798 -7.80362773 -7.37947452 -2.49077548 0 0 Z " fill="#F05158" transform="translate(450.11181640625,721.258544921875)"/>
<path d="M0 0 C7.41729096 1.44613849 14.29400322 3.75810988 21.375 6.375 C22.43460937 6.76171875 23.49421875 7.1484375 24.5859375 7.546875 C26.68933782 8.31502855 28.79189747 9.08548851 30.89355469 9.85839844 C35.59116579 11.58474467 40.29562445 13.29219111 45 15 C45.495 17.97 45.495 17.97 46 21 C39.50265609 19.68094124 33.41513601 17.88322752 27.1875 15.625 C25.42867241 14.99659199 23.66955851 14.36898475 21.91015625 13.7421875 C21.06855957 13.44151367 20.22696289 13.14083984 19.35986328 12.83105469 C16.29786522 11.75273466 13.21415232 10.7474985 10.125 9.75 C6.19991385 8.46016999 2.61065302 7.00591834 -1 5 C-0.67 3.35 -0.34 1.7 0 0 Z " fill="#F05159" transform="translate(273,645)"/>
<path d="M0 0 C3.02178808 1.22033749 6.02212813 2.48277396 9.01953125 3.76171875 C13.62000327 5.67305509 18.30239129 7.34474024 23 9 C22.34 10.65 21.68 12.3 21 14 C17.92577354 13.2743204 14.95360003 12.36085186 11.95703125 11.36328125 C10.9729126 11.03610107 9.98879395 10.7089209 8.97485352 10.37182617 C4.67885679 8.93275184 0.38431921 7.48944537 -3.90820312 6.04003906 C-6.71153868 5.09703452 -9.51912774 4.16814802 -12.328125 3.2421875 C-13.86486549 2.72479563 -15.40134382 2.20662414 -16.9375 1.6875 C-17.64608154 1.45780518 -18.35466309 1.22811035 -19.0847168 0.99145508 C-21.02734375 0.32421875 -21.02734375 0.32421875 -24 -1 C-24.33 -1.99 -24.66 -2.98 -25 -4 C-17.69283157 -8.33863126 -7.3330692 -2.68080796 0 0 Z " fill="#F05158" transform="translate(467,712)"/>
<path d="M0 0 C2.33538295 0.65999953 4.66811208 1.32781878 7 2 C7.80695313 2.22945312 8.61390625 2.45890625 9.4453125 2.6953125 C10.28835938 2.94023438 11.13140625 3.18515625 12 3.4375 C12.78375 3.66308594 13.5675 3.88867188 14.375 4.12109375 C17.00667701 5.0022356 19.51397408 6.07480493 22.05517578 7.1862793 C25.62404922 8.67950741 29.2838804 9.91953433 32.9375 11.1875 C33.71673828 11.46013672 34.49597656 11.73277344 35.29882812 12.01367188 C37.19845835 12.67795974 39.0991224 13.33929001 41 14 C41.495 16.97 41.495 16.97 42 20 C36.39869234 18.66275087 30.95509836 17.09089954 25.5 15.25 C24.73187988 14.9926709 23.96375977 14.7353418 23.17236328 14.47021484 C15.37769383 11.83366511 7.68030537 8.95074402 0 6 C0 4.02 0 2.04 0 0 Z " fill="#F05159" transform="translate(274,630)"/>
<path d="M0 0 C4.09913403 0.58818431 7.78183364 1.50286201 11.66796875 2.92578125 C12.72693359 3.31056641 13.78589844 3.69535156 14.87695312 4.09179688 C15.96943359 4.49462891 17.06191406 4.89746094 18.1875 5.3125 C19.26064453 5.70373047 20.33378906 6.09496094 21.43945312 6.49804688 C23.57551005 7.27726183 25.71077861 8.05864167 27.84521484 8.84228516 C32.55955469 10.57231143 37.27982134 12.28598181 42 14 C42 14.66 42 15.32 42 16 C41.34 16 40.68 16 40 16 C40 16.66 40 17.32 40 18 C35.07214387 18.28207696 31.43212178 17.34101476 26.80859375 15.6640625 C25.80699974 15.30494278 25.80699974 15.30494278 24.78517151 14.93856812 C22.6659566 14.17623742 20.55182519 13.40077522 18.4375 12.625 C17.01397942 12.11112641 15.59015367 11.59809738 14.16601562 11.0859375 C8.74760265 9.13063868 3.33673005 7.17063727 -2 5 C-2 4.01 -2 3.02 -2 2 C-1.34 2 -0.68 2 0 2 C0 1.34 0 0.68 0 0 Z " fill="#F05159" transform="translate(457,695)"/>
<path d="M0 0 C5.53680676 -0.44609344 9.44407841 1.09374446 14.4375 3.1875 C22.53232616 6.46708394 30.68193781 9.33772936 39 12 C39 13.32 39 14.64 39 16 C34.4252734 17.42977195 31.1886159 16.36409918 26.87109375 14.7265625 C26.19957779 14.48336273 25.52806183 14.24016296 24.8361969 13.98959351 C22.69886341 13.21294892 20.5682174 12.41959458 18.4375 11.625 C16.30202275 10.84119728 14.16531463 10.06085795 12.02809143 9.28182983 C10.70121131 8.79680802 9.37557346 8.30837028 8.05137634 7.81607056 C5.06168587 6.71074892 2.11695748 5.68075403 -1 5 C-0.67 3.35 -0.34 1.7 0 0 Z " fill="#F05159" transform="translate(466,684)"/>
<path d="M0 0 C1.35602585 0.26136553 2.70974092 0.53472143 4.0625 0.8125 C5.19365234 1.03873047 5.19365234 1.03873047 6.34765625 1.26953125 C9.00337474 2.00092942 11.41340703 3.0287605 13.92797852 4.1418457 C18.1748629 5.90074739 22.57130953 7.25796806 26.9375 8.6875 C28.3925293 9.16799805 28.3925293 9.16799805 29.87695312 9.65820312 C32.25040893 10.44156046 34.6247562 11.22208451 37 12 C37 13.65 37 15.3 37 17 C33.68290645 18.10569785 33.23733359 17.9737263 30.1484375 16.77734375 C29.38700439 16.48867432 28.62557129 16.20000488 27.84106445 15.90258789 C27.02726318 15.58410889 26.21346191 15.26562988 25.375 14.9375 C23.66839124 14.28795137 21.9613497 13.63953883 20.25390625 12.9921875 C19.38523926 12.66057617 18.51657227 12.32896484 17.62158203 11.98730469 C13.54029984 10.45026751 9.42867548 9.00294083 5.3125 7.5625 C4.57628418 7.3039624 3.84006836 7.0454248 3.08154297 6.77905273 C1.38813138 6.18479108 -0.30586246 5.59218892 -2 5 C-1.34 3.35 -0.68 1.7 0 0 Z " fill="#F05158" transform="translate(474,671)"/>
<path d="M0 0 C5.54356867 0.67935891 10.5229518 2.43893784 15.75 4.3125 C16.63655273 4.62646729 17.52310547 4.94043457 18.43652344 5.26391602 C24.34742872 7.37053138 30.22075134 9.55142359 36 12 C35.67 13.65 35.34 15.3 35 17 C27.39158618 15.52662462 20.32676046 13.112472 13.0625 10.4375 C11.92748047 10.02564453 10.79246094 9.61378906 9.62304688 9.18945312 C1.35178571 6.17589286 1.35178571 6.17589286 -1 5 C-0.67 3.35 -0.34 1.7 0 0 Z " fill="#F05158" transform="translate(499,605)"/>
<path d="M0 0 C8.25183022 2.08758756 16.20119651 4.7540423 24.1875 7.6875 C25.33025391 8.10322266 26.47300781 8.51894531 27.65039062 8.94726562 C30.43504991 9.96092821 33.21818617 10.97856024 36 12 C35.67 13.98 35.34 15.96 35 18 C32.95039059 17.31679686 30.90085048 16.63338543 28.8515625 15.94921875 C26.84737807 15.28207242 24.84206543 14.61831046 22.8359375 13.95703125 C19.38654435 12.81657064 15.9431397 11.65919036 12.5 10.5 C11.30890625 10.10941406 10.1178125 9.71882812 8.890625 9.31640625 C7.76140625 8.93355469 6.6321875 8.55070313 5.46875 8.15625 C4.44201172 7.81400391 3.41527344 7.47175781 2.35742188 7.11914062 C1.19049805 6.56516602 1.19049805 6.56516602 0 6 C-1 3 -1 3 0 0 Z " fill="#F05159" transform="translate(480,658)"/>
<path d="M0 0 C7.73009769 1.52785051 15.0541278 3.87694728 22.5 6.4375 C23.69109375 6.83259766 24.8821875 7.22769531 26.109375 7.63476562 C27.80320312 8.21581055 27.80320312 8.21581055 29.53125 8.80859375 C30.55798828 9.15720459 31.58472656 9.50581543 32.64257812 9.86499023 C33.42052734 10.23954346 34.19847656 10.61409668 35 11 C36 14 36 14 35 17 C27.96846667 15.61105514 21.45702346 13.50831772 14.75 11 C13.78320312 10.64421875 12.81640625 10.2884375 11.8203125 9.921875 C7.52335836 8.33567154 3.24797222 6.71359522 -1 5 C-0.67 3.35 -0.34 1.7 0 0 Z " fill="#F05158" transform="translate(485,645)"/>
<path d="M0 0 C1.16015625 0.38671875 2.3203125 0.7734375 3.515625 1.171875 C4.64242676 1.54735474 4.64242676 1.54735474 5.79199219 1.93041992 C7.43867179 2.47947668 9.08515448 3.02912434 10.73144531 3.5793457 C14.36891532 4.79433495 18.0076031 6.00246126 21.65625 7.18359375 C26.66080271 8.80754583 31.39451728 10.44139849 36 13 C35.34 14.65 34.68 16.3 34 18 C27.5541664 16.15370595 21.17776793 14.10440365 14.8125 12 C14.05275879 11.7510498 13.29301758 11.50209961 12.51025391 11.24560547 C7.89426773 9.70962576 3.44493105 7.9781415 -1 6 C-0.67 4.02 -0.34 2.04 0 0 Z " fill="#F05159" transform="translate(490,631)"/>
<path d="M0 0 C8.0359407 1.50836427 15.43096765 4.2281823 23.0625 7.125 C24.32205911 7.59820632 25.58182346 8.07086669 26.84179688 8.54296875 C29.89658624 9.68997778 32.949198 10.84243637 36 12 C35.67 13.65 35.34 15.3 35 17 C30.76022013 16.39200022 26.91026507 15.41018038 22.8671875 14.00390625 C21.73152344 13.61009766 20.59585938 13.21628906 19.42578125 12.81054688 C18.25402344 12.39869141 17.08226562 11.98683594 15.875 11.5625 C14.69550781 11.15451172 13.51601563 10.74652344 12.30078125 10.32617188 C2.77977981 7.00627774 2.77977981 7.00627774 -1 5 C-0.67 3.35 -0.34 1.7 0 0 Z " fill="#F05158" transform="translate(513,565)"/>
<path d="M0 0 C5.54356867 0.67935891 10.5229518 2.43893784 15.75 4.3125 C16.63655273 4.62646729 17.52310547 4.94043457 18.43652344 5.26391602 C24.34742872 7.37053138 30.22075134 9.55142359 36 12 C35.34 13.65 34.68 15.3 34 17 C22.25853361 13.91618909 9.89945278 10.44972639 -1 5 C-0.67 3.35 -0.34 1.7 0 0 Z " fill="#F05158" transform="translate(518,552)"/>
<path d="M0 0 C7.18757315 2.37824112 14.34678302 4.83299134 21.5 7.3125 C22.63679199 7.70622803 23.77358398 8.09995605 24.94482422 8.50561523 C33.97518017 11.63681105 42.9933637 14.80126427 52 18 C52 18.66 52 19.32 52 20 C35.85470882 18.34859484 22.17388245 15.02859142 8 7 C7.01257813 6.46246094 6.02515625 5.92492187 5.0078125 5.37109375 C2.99164881 4.26879865 0.98948586 3.14948072 -1 2 C-0.67 1.34 -0.34 0.68 0 0 Z " fill="#F05158" transform="translate(332,740)"/>
<path d="M0 0 C6.52966705 0.92456561 12.57809568 3.05080216 18.7878418 5.18310547 C20.82019417 5.87762936 22.85800927 6.55416025 24.89648438 7.23046875 C26.18787235 7.67078445 27.47890178 8.11215345 28.76953125 8.5546875 C30.52680542 9.14999268 30.52680542 9.14999268 32.31958008 9.75732422 C33.20411865 10.16740723 34.08865723 10.57749023 35 11 C36 14 36 14 35 17 C30.8873554 16.41729953 27.25018265 15.49079408 23.375 14.00390625 C22.33859375 13.61009766 21.3021875 13.21628906 20.234375 12.81054688 C19.16703125 12.39869141 18.0996875 11.98683594 17 11.5625 C14.87535853 10.7503635 12.75036893 9.93913707 10.625 9.12890625 C9.68914063 8.76869385 8.75328125 8.40848145 7.7890625 8.03735352 C4.88009107 6.95540152 1.94946008 5.96548053 -1 5 C-0.67 3.35 -0.34 1.7 0 0 Z " fill="#F05058" transform="translate(504,592)"/>
<path d="M0 0 C4.39862794 -0.3298971 7.60345977 0.42826704 11.671875 2.08203125 C14.37443752 3.14763895 17.11176708 4.0412206 19.875 4.9375 C25.34611021 6.7403213 30.68237819 8.78824579 36 11 C36 12.65 36 14.3 36 16 C31.42383223 16.23798792 28.27597431 15.57489273 24.0625 13.8125 C17.79055823 11.26903974 11.4676387 9.15197228 5.01953125 7.11328125 C2 6 2 6 0 4 C0 2.68 0 1.36 0 0 Z " fill="#F05159" transform="translate(508,579)"/>
<path d="M0 0 C7.83403051 2.23053796 15.47425051 4.89853492 23.125 7.6875 C24.27226563 8.10322266 25.41953125 8.51894531 26.6015625 8.94726562 C29.40193865 9.96240198 32.20138366 10.98002429 35 12 C34.67 13.65 34.34 15.3 34 17 C27.85318324 15.74847614 21.9386223 14.14041594 16 12.125 C15.21834473 11.86251465 14.43668945 11.6000293 13.63134766 11.32958984 C8.27113156 9.50262438 3.10669878 7.45878089 -2 5 C-1.34 3.35 -0.68 1.7 0 0 Z " fill="#F05158" transform="translate(495,618)"/>
<path d="M0 0 C0.21536552 3.15869424 0.27148038 5.40913094 -1.0625 8.3125 C-3.88997019 10.77513533 -6.32295772 10.86628937 -10 11 C-12 9 -12 9 -12.125 5.375 C-12.08375 4.26125 -12.0425 3.1475 -12 2 C-11.34 2 -10.68 2 -10 2 C-10 1.34 -10 0.68 -10 0 C-6.42355152 -1.2380014 -3.66305234 -0.74926071 0 0 Z " fill="#F0525A" transform="translate(290,821)"/>
</svg>
